<svg width="244" height="54" viewBox="0 0 244 54" fill="none" xmlns="http://www.w3.org/2000/svg">
<path fill-rule="evenodd" clip-rule="evenodd" d="M54.2566 48.9212L57.4367 41.9373C57.7642 41.2357 58.076 40.5032 59.2606 40.5032C59.2606 40.5032 58.8086 41.2204 58.4811 41.9373L53.7422 52.3505L49.0029 41.9373C48.6755 41.2204 48.2234 40.5032 48.2234 40.5032C50.3905 40.5032 50.7333 41.2357 51.0607 41.9373L54.2566 48.9212Z" fill="#A4123F"/>
<path fill-rule="evenodd" clip-rule="evenodd" d="M62.8454 51.5713H60.9749V42.2177C60.9749 41.4385 60.9749 40.5027 63.0013 40.5027C63.0013 40.5027 62.8454 41.4385 62.8454 42.2177V51.5713Z" fill="#A4123F"/>
<path fill-rule="evenodd" clip-rule="evenodd" d="M69.0654 41.4228C67.569 41.4228 66.8517 42.2176 66.8517 43.0912C66.8517 43.5272 67.0699 43.9326 67.4906 44.1355L71.3881 46.037C72.5574 46.6137 73.1031 47.5652 73.1031 48.5156C73.1031 50.0747 71.6529 51.6491 69.0498 51.6491C67.8025 51.6491 66.7115 51.5868 65.2617 51.5711L66.0878 50.4022C67.0233 50.6204 68.1456 50.7606 69.0341 50.7606C70.7644 50.7606 71.5753 49.8874 71.5753 49.0769C71.5753 48.6253 71.3258 48.1885 70.8271 47.955L67.0076 46.068C65.9633 45.554 65.4172 44.5563 65.4172 43.5428C65.4172 42.0621 66.5865 40.5813 69.0654 40.5813C70.1721 40.5813 71.2944 40.6436 72.5731 40.6593C72.5731 40.7678 72.5574 41.7032 71.4351 41.7032C70.4996 41.5473 69.767 41.4228 69.0654 41.4228Z" fill="#A4123F"/>
<path fill-rule="evenodd" clip-rule="evenodd" d="M76.9218 45.6474H81.9885V42.2177C81.9885 41.4385 81.9885 40.5027 84.0146 40.5027C84.0146 40.5027 83.8591 41.4385 83.8591 42.2177V50.0286C83.8591 50.8074 84.0146 51.7276 84.0146 51.7276C81.9885 51.7276 81.9885 50.7921 81.9885 50.0129V46.5832H76.9218V50.0129C76.9218 50.7921 76.9218 51.7276 74.8953 51.7276C74.8953 51.7276 75.0512 50.8074 75.0512 50.0286V42.2177C75.0512 41.4385 74.8953 40.5027 74.8953 40.5027C76.9218 40.5027 76.9218 41.4385 76.9218 42.2177V45.6474Z" fill="#A4123F"/>
<path fill-rule="evenodd" clip-rule="evenodd" d="M93.9447 39.8792L98.1226 48.609L100.445 41.9992C100.695 41.2667 101.007 40.5028 102.098 40.5028C102.098 40.5028 101.723 41.251 101.459 41.9992L97.8418 52.3505L93.4927 43.1686L89.3614 52.3505L85.7445 41.9992C85.4797 41.251 85.1056 40.5028 85.1056 40.5028C87.179 40.5028 87.4282 41.2667 87.6934 41.9992L90.0164 48.6247L93.9447 39.8792Z" fill="#A4123F"/>
<path fill-rule="evenodd" clip-rule="evenodd" d="M104.794 46.5827H107.788L106.291 43.3097L104.794 46.5827ZM108.208 47.5185H104.374L103.111 50.2936C102.784 50.9948 102.472 51.727 101.287 51.727C101.287 51.727 101.739 51.0101 102.066 50.2936L106.805 39.8796L111.544 50.2936C111.872 51.0101 112.324 51.727 112.324 51.727C110.157 51.727 109.814 50.9948 109.487 50.2936L108.208 47.5185Z" fill="#A4123F"/>
<path fill-rule="evenodd" clip-rule="evenodd" d="M123.812 48.9212L126.993 41.9373C127.32 41.2357 127.632 40.5032 128.816 40.5032C128.816 40.5032 128.364 41.2204 128.037 41.9373L123.298 52.3505L118.559 41.9373C118.232 41.2204 117.78 40.5032 117.78 40.5032C119.946 40.5032 120.29 41.2357 120.617 41.9373L123.812 48.9212Z" fill="#A4123F"/>
<path fill-rule="evenodd" clip-rule="evenodd" d="M132.402 51.5713H130.531V42.2177C130.531 41.4385 130.531 40.5027 132.558 40.5027C132.558 40.5027 132.402 41.4385 132.402 42.2177V51.5713Z" fill="#A4123F"/>
<path fill-rule="evenodd" clip-rule="evenodd" d="M137.234 41.4694V50.7611C137.904 50.7767 138.497 50.8073 139.089 50.8073C141.49 50.8073 142.519 48.7808 142.519 46.1147C142.519 43.4806 141.303 41.4228 139.089 41.4228C138.419 41.4228 137.826 41.4694 137.234 41.4694ZM139.073 40.5806C142.301 40.5806 144.468 43.0125 144.468 46.1147C144.468 49.2172 142.301 51.6491 139.073 51.6491C137.608 51.6491 136.408 51.5712 135.207 51.5712C135.207 51.5712 135.364 50.7297 135.364 50.0128V42.2176C135.364 41.4385 135.207 40.6593 135.207 40.6593C136.502 40.6436 137.78 40.5806 139.073 40.5806Z" fill="#A4123F"/>
<path fill-rule="evenodd" clip-rule="evenodd" d="M151.171 45.3668C150.859 45.7879 150.75 46.6144 150.75 47.1284V51.5715H148.879V47.1284C148.879 46.6144 148.77 46.0374 148.458 45.6167L145.917 42.2489C145.465 41.6409 144.296 40.5029 144.296 40.5029C146.868 40.5029 147.383 41.1893 147.897 41.8748L150.235 44.9617L152.589 41.8129C153.072 41.1579 153.571 40.5029 155.099 40.5029C155.099 40.5029 154.164 41.3922 153.711 41.9994L151.171 45.3668Z" fill="#A4123F"/>
<path fill-rule="evenodd" clip-rule="evenodd" d="M157.827 46.5827H160.82L159.324 43.3097L157.827 46.5827ZM161.241 47.5185H157.406L156.143 50.2936C155.816 50.9948 155.504 51.727 154.319 51.727C154.319 51.727 154.772 51.0101 155.099 50.2936L159.838 39.8796L164.576 50.2936C164.904 51.0101 165.357 51.727 165.357 51.727C163.19 51.727 162.846 50.9948 162.52 50.2936L161.241 47.5185Z" fill="#A4123F"/>
<path fill-rule="evenodd" clip-rule="evenodd" d="M168.474 41.4384V45.9125C169.082 45.9434 169.752 45.9591 170.189 45.9591C171.327 45.9591 172.278 45.1176 172.278 43.6051C172.278 42.1396 171.327 41.4071 170.189 41.4071C169.627 41.4071 169.067 41.4384 168.474 41.4384ZM174.179 43.6051C174.179 45.4608 172.496 46.6916 170.501 46.6916C169.83 46.6916 169.144 46.645 168.474 46.645V50.0128C168.474 50.792 168.474 51.7274 166.448 51.7274C166.448 51.7274 166.604 50.792 166.604 50.0128V42.2176C166.604 41.4384 166.448 40.6593 166.448 40.6593H168.708C169.051 40.6593 169.316 40.6593 169.596 40.6436C169.877 40.6436 170.174 40.6279 170.501 40.6279C172.496 40.6279 174.179 41.7346 174.179 43.6051Z" fill="#A4123F"/>
<path fill-rule="evenodd" clip-rule="evenodd" d="M177.843 50.6359H182.052C183.143 50.6359 183.143 51.5717 183.143 51.5717H175.816C175.816 51.5717 175.972 50.8071 175.972 50.0279V42.2182C175.972 41.4383 175.816 40.6587 175.816 40.6587H183.143C183.143 40.6587 183.143 41.5942 182.052 41.5942H177.843V45.6479H181.74V46.5826H177.843V50.6359Z" fill="#A4123F"/>
<path fill-rule="evenodd" clip-rule="evenodd" d="M187.04 50.6359H191.249C192.34 50.6359 192.34 51.5717 192.34 51.5717H185.013C185.013 51.5717 185.17 50.8071 185.17 50.0279V42.2182C185.17 41.4383 185.013 40.6587 185.013 40.6587H192.34C192.34 40.6587 192.34 41.5942 191.249 41.5942H187.04V45.6479H190.938V46.5826H187.04V50.6359Z" fill="#A4123F"/>
<path fill-rule="evenodd" clip-rule="evenodd" d="M193.12 40.6589H203.564C203.564 40.7212 203.549 41.6257 202.785 41.6257C201.803 41.6105 201.288 41.5639 200.15 41.5639H199.355V51.5712H197.328V41.5639H196.534C195.396 41.5639 194.881 41.6105 193.899 41.6257C193.135 41.6257 193.12 40.7212 193.12 40.6589Z" fill="#A4123F"/>
<path fill-rule="evenodd" clip-rule="evenodd" d="M206.682 45.6474H211.748V42.2177C211.748 41.4385 211.748 40.5027 213.774 40.5027C213.774 40.5027 213.619 41.4385 213.619 42.2177V50.0286C213.619 50.8074 213.774 51.7276 213.774 51.7276C211.748 51.7276 211.748 50.7921 211.748 50.0129V46.5832H206.682V50.0129C206.682 50.7921 206.682 51.7276 204.655 51.7276C204.655 51.7276 204.811 50.8074 204.811 50.0286V42.2177C204.811 41.4385 204.655 40.5027 204.655 40.5027C206.682 40.5027 206.682 41.4385 206.682 42.2177V45.6474Z" fill="#A4123F"/>
<path fill-rule="evenodd" clip-rule="evenodd" d="M218.373 46.5827H221.367L219.87 43.3097L218.373 46.5827ZM221.787 47.5185H217.952L216.69 50.2936C216.362 50.9948 216.05 51.727 214.866 51.727C214.866 51.727 215.318 51.0101 215.645 50.2936L220.385 39.8796L225.123 50.2936C225.451 51.0101 225.903 51.727 225.903 51.727C223.736 51.727 223.393 50.9948 223.066 50.2936L221.787 47.5185Z" fill="#A4123F"/>
<path fill-rule="evenodd" clip-rule="evenodd" d="M234.367 52.3505L230.189 43.6206L227.866 50.2304C227.617 50.9634 227.306 51.7269 226.214 51.7269C226.214 51.7269 226.589 50.9787 226.853 50.2304L230.47 39.8792L234.819 49.0615L238.951 39.8792L242.568 50.2304C242.832 50.9787 243.206 51.7269 243.206 51.7269C241.133 51.7269 240.884 50.9634 240.619 50.2304L238.296 43.6058L234.367 52.3505Z" fill="#A4123F"/>
<path fill-rule="evenodd" clip-rule="evenodd" d="M59.234 21.1463L63.4922 11.7929L67.7727 21.1463H59.234ZM65.0254 0.236572L50.9021 31.2708C50.253 32.6928 48.9932 34.8301 48.2234 36.1005L48.5791 36.0998C51.4544 36.0998 52.7832 34.7479 53.6795 33.188C53.9678 32.6869 54.2111 32.164 54.4469 31.6578L54.521 31.4992L58.0176 23.818H68.9953L72.5131 31.5054C73.5179 33.6588 74.6567 36.0998 81.4714 36.0998L81.8318 36.1052C81.8318 36.1052 80.1242 33.4073 79.1484 31.2708L65.0254 0.236572Z" fill="#A4123F"/>
<path fill-rule="evenodd" clip-rule="evenodd" d="M122.496 0.236328L110.184 27.6006L97.2224 0.236328L86.4441 31.0847C85.654 33.3149 84.2676 36.0997 84.2676 36.0997H84.5395C88.3433 36.0997 89.3344 33.1895 89.9878 31.2688L96.4648 12.837L108.853 38.7224L120.48 12.8366L126.974 31.3558C127.777 33.5793 128.688 36.0997 135.178 36.0997H135.44C135.44 36.0997 134.064 33.3149 133.274 31.0847L122.496 0.236328Z" fill="#A4123F"/>
<path fill-rule="evenodd" clip-rule="evenodd" d="M170.852 6.81049V36.0021H177.537V6.81049C177.537 4.56191 177.99 1.81857 177.994 1.79114L178.101 1.14478H177.446C170.852 1.14478 170.852 4.41932 170.852 6.81049Z" fill="#A4123F"/>
<path fill-rule="evenodd" clip-rule="evenodd" d="M211.74 4.58496C214.012 4.58496 214.618 2.4257 214.618 1.14941H182.4H182.381C182.381 2.4257 182.987 4.58496 185.267 4.58496C186.471 4.56576 187.45 4.53051 188.396 4.49682C189.795 4.44628 191.117 4.39928 193.11 4.39928H194.924V35.9738H202.074V4.39928H203.888C205.881 4.39928 207.203 4.44628 208.603 4.49682C209.549 4.53051 210.527 4.56576 211.74 4.58496Z" fill="#A4123F"/>
<path fill-rule="evenodd" clip-rule="evenodd" d="M162.72 32.3456L153.844 20.4662C159.233 19.5366 163.537 15.6168 163.222 9.87563C162.924 4.44849 158.025 1.14966 152.078 1.14966C147.665 1.14966 143.577 1.33573 139.535 1.33573C139.535 1.33573 139.999 3.65835 139.999 5.98136L139.816 30.998C139.816 33.3214 139.352 36.1087 139.352 36.1087C145.392 36.1087 145.392 33.3214 145.392 30.998L145.574 3.79742C148.037 3.79742 149.57 3.69792 151.149 3.70497C154.671 3.71985 157.438 6.2258 157.835 9.96847C158.274 14.1005 156.838 17.1744 153.835 18.5321C151.631 19.43 146.839 19.2996 146.839 19.2996L156.645 32.4765C158.039 34.3345 159.933 36.1087 166.018 36.1087C166.018 36.1087 164.346 34.5292 162.72 32.3456Z" fill="#A4123F"/>
<path fill-rule="evenodd" clip-rule="evenodd" d="M220.568 21.1463L224.826 11.7929L229.107 21.1463H220.568ZM240.482 31.2708L226.359 0.236572L212.236 31.2708C211.587 32.6928 210.327 34.8301 209.557 36.1005L209.913 36.0998C212.788 36.0998 214.117 34.7479 215.013 33.188C215.302 32.6869 215.545 32.164 215.78 31.6578L215.855 31.4992L219.352 23.818H230.329L233.847 31.5054C234.852 33.6588 235.99 36.0998 242.805 36.0998L243.166 36.1052C243.166 36.1052 241.458 33.4073 240.482 31.2708Z" fill="#A4123F"/>
<path fill-rule="evenodd" clip-rule="evenodd" d="M27.3355 26.5433L26.6691 26.763C26.8748 26.8837 27.1486 26.9789 27.5572 26.9789C27.5803 26.9789 27.6042 26.9789 27.6297 26.9781C27.6963 26.9785 27.7511 26.9848 27.7977 26.9965H37.2613C37.3648 26.7344 37.4607 26.4684 37.5504 26.1997H28.153C27.907 26.3317 27.6363 26.4481 27.3355 26.5433Z" fill="#A4123F"/>
<path fill-rule="evenodd" clip-rule="evenodd" d="M16.8138 26.9781C16.8428 26.9789 16.8667 26.9789 16.8898 26.9789C17.2987 26.9789 17.5726 26.8837 17.7778 26.763L17.1103 26.5429C16.8103 26.4477 16.54 26.3313 16.2939 26.1997H6.83777C6.92748 26.4684 7.02345 26.7344 7.12687 26.9965H16.6489C16.6943 26.9848 16.7484 26.9785 16.8138 26.9781Z" fill="#A4123F"/>
<path fill-rule="evenodd" clip-rule="evenodd" d="M27.8477 27.7044C27.4795 27.9375 26.7266 28.1694 25.9787 28.1757L25.9576 28.1761C25.8906 28.1761 25.8271 28.1643 25.7695 28.1416C25.538 28.2779 25.0092 28.4323 24.5348 28.4867H36.5851C36.7202 28.2251 36.8483 27.9595 36.969 27.6899H27.8653C27.8591 27.695 27.8516 27.7013 27.8477 27.7044Z" fill="#A4123F"/>
<path fill-rule="evenodd" clip-rule="evenodd" d="M18.6778 28.1416C18.6206 28.1643 18.5575 28.1761 18.4917 28.1761L18.4678 28.1757C17.7208 28.1694 16.9679 27.9375 16.6102 27.7119C16.6036 27.7068 16.5938 27.6986 16.5832 27.6899H7.41925C7.5403 27.9595 7.668 28.2251 7.80315 28.4867H19.9126C19.4382 28.4323 18.9093 28.2779 18.6778 28.1416Z" fill="#A4123F"/>
<path fill-rule="evenodd" clip-rule="evenodd" d="M22.1935 3.38031C31.9239 3.38031 39.8386 11.3318 39.8386 21.105C39.8386 30.8773 31.9239 38.8284 22.1935 38.8284C12.4643 38.8284 4.5496 30.8773 4.5496 21.105C4.5496 11.3318 12.4643 3.38031 22.1935 3.38031ZM4.20135 21.1035C3.78532 21.2124 3.46018 21.4415 3.23415 21.7874C2.42521 23.0238 3.01947 25.5324 3.497 27.5487C3.6678 28.2699 3.82881 28.9512 3.89579 29.4577C3.90754 29.547 3.92008 29.6394 3.9334 29.7331C4.02037 30.3575 4.11869 31.0658 3.98198 31.5061L3.93967 31.644L4.07991 31.6761C4.53002 31.7779 5.09412 32.2175 5.59124 32.6045C5.66567 32.6629 5.73931 32.7201 5.811 32.7749C6.21645 33.0859 6.72571 33.5662 7.26513 34.0747C8.73846 35.465 10.5644 37.1863 12.024 37.1863C12.0577 37.1863 12.091 37.1855 12.1239 37.1839C12.5419 37.16 12.9066 36.9884 13.2117 36.6754C13.0981 37.0903 13.1342 37.4863 13.3198 37.855C13.9866 39.1736 16.4569 39.9139 18.4418 40.5086C19.152 40.7217 19.8227 40.9227 20.2951 41.1182C20.3786 41.1526 20.4648 41.1875 20.5525 41.2235C21.1366 41.4605 21.799 41.7289 22.112 42.0673L22.21 42.1731L22.3079 42.0677C22.6221 41.7289 23.2845 41.4605 23.8686 41.2235C23.9563 41.1879 24.0433 41.1526 24.1267 41.1182C24.5984 40.9227 25.2694 40.7217 25.9793 40.5086C27.9642 39.9139 30.4349 39.1736 31.1012 37.855C31.2901 37.482 31.3234 37.0801 31.205 36.6598C31.5075 36.9649 31.8687 37.1318 32.2808 37.1549C32.3141 37.1565 32.3474 37.1577 32.381 37.1577C33.8403 37.1577 35.6662 35.436 37.1399 34.0461C37.6793 33.5372 38.1886 33.057 38.594 32.7459C38.6657 32.6911 38.739 32.6335 38.8146 32.5751C39.3117 32.1885 39.8754 31.7493 40.3248 31.6471L40.4654 31.6154L40.4227 31.4779C40.2864 31.0375 40.3847 30.3305 40.4713 29.7068C40.4846 29.612 40.4975 29.5196 40.5093 29.4291C40.5759 28.9222 40.7369 28.2413 40.9077 27.5197C41.3852 25.5039 41.9795 22.9952 41.1705 21.7588C40.9414 21.4082 40.6107 21.1783 40.1869 21.0709C40.6029 20.9616 40.928 20.7325 41.1541 20.387C41.9626 19.1502 41.3687 16.6408 40.8912 14.6244C40.7204 13.9028 40.559 13.2216 40.4924 12.715C40.4807 12.6253 40.4677 12.5325 40.4548 12.4381C40.3682 11.814 40.2695 11.107 40.4062 10.667L40.4489 10.5291L40.3083 10.497C39.8586 10.3952 39.2957 9.95642 38.7985 9.56899C38.7233 9.51062 38.6496 9.45304 38.5776 9.3978C38.1721 9.08715 37.6625 8.60649 37.123 8.09802C35.6493 6.70852 33.8238 4.98644 32.3646 4.98644C32.3309 4.98644 32.2972 4.98761 32.2643 4.98918C31.8467 5.01268 31.4816 5.18427 31.1768 5.49726C31.2901 5.08241 31.2544 4.68637 31.0679 4.31774C30.4016 2.99876 27.9309 2.25876 25.946 1.66371C25.2361 1.45139 24.5655 1.25004 24.0934 1.05456C24.0096 1.02009 23.9234 0.98483 23.8353 0.949182C23.2512 0.71218 22.5888 0.44384 22.275 0.105378L22.177 0L22.0791 0.105378C21.7657 0.44384 21.1037 0.712572 20.5196 0.949182C20.4319 0.985222 20.3453 1.02009 20.2618 1.05456C19.7898 1.25004 19.1191 1.45139 18.4089 1.66371C16.424 2.25876 13.9537 2.99876 13.2873 4.31774C13.0985 4.69107 13.0648 5.0926 13.1831 5.51293C12.8807 5.20777 12.5199 5.04089 12.1074 5.01817C10.6313 4.93159 8.75609 6.70499 7.24868 8.12661C6.70926 8.63548 6.2 9.11575 5.79416 9.42679C5.72247 9.48164 5.64921 9.53922 5.57361 9.59759C5.07649 9.98502 4.51317 10.4234 4.06385 10.5256L3.92321 10.5577L3.96552 10.6952C4.10224 11.1359 4.00352 11.8434 3.91655 12.4679C3.90363 12.5619 3.89109 12.6543 3.87934 12.7436C3.81235 13.2502 3.65096 13.9318 3.48055 14.6534C3.00302 16.6698 2.40915 19.1792 3.21769 20.4156C3.44647 20.7658 3.77788 20.9957 4.20135 21.1035Z" fill="#A4123F"/>
<path fill-rule="evenodd" clip-rule="evenodd" d="M15.7642 35.9375H28.6242C29.1699 35.7005 29.7003 35.4345 30.2131 35.1411H14.1754C14.6881 35.4345 15.2186 35.7005 15.7642 35.9375Z" fill="#A4123F"/>
<path fill-rule="evenodd" clip-rule="evenodd" d="M22.1941 37.2713C23.7583 37.2713 25.2712 37.0476 26.703 36.6316H17.6852C19.117 37.0476 20.6299 37.2713 22.1941 37.2713Z" fill="#A4123F"/>
<path fill-rule="evenodd" clip-rule="evenodd" d="M26.1109 21.1117C26.0027 21.0169 25.6717 20.9163 25.2714 20.9163C25.0908 20.9163 24.9168 20.9362 24.7547 20.9762C24.1486 21.1251 23.6507 21.7554 23.6562 22.0723C23.8451 22.3061 24.0719 22.5522 24.2959 22.766C24.7821 23.2299 25.2208 23.6988 25.2514 24.3338C25.2655 24.626 25.2208 24.9006 25.1147 25.1733C24.8949 25.7401 24.388 26.0692 23.9163 26.258C25.2859 26.1977 26.2793 25.8847 26.8015 25.3468C27.1447 24.9931 27.3002 24.5293 27.263 23.9683C27.2375 23.5777 26.9531 23.1938 26.6773 22.8213C26.2887 22.2964 25.8868 21.7538 26.1238 21.1239C26.1207 21.1207 26.1164 21.1164 26.1109 21.1117Z" fill="#A4123F"/>
<path fill-rule="evenodd" clip-rule="evenodd" d="M27.9723 21.4653C27.7576 21.4653 27.4371 21.4877 27.132 21.595C26.7716 21.7211 26.5522 21.8551 26.4633 22.0028C26.5737 22.2237 26.7379 22.4447 26.8969 22.6597C27.1954 23.0632 27.5041 23.48 27.5351 23.9501C27.5774 24.5918 27.3964 25.1257 26.9972 25.5371C26.5138 26.0354 25.7186 26.3507 24.6272 26.4772C24.7059 26.4792 24.7835 26.48 24.8607 26.48C26.4782 26.48 27.7854 26.1141 28.5414 25.4497C29.0127 25.0356 29.2376 24.5366 29.209 23.9662C29.1898 23.5807 28.9751 23.281 28.7679 22.9908C28.4831 22.5928 28.1615 22.143 28.5223 21.5284C28.4275 21.4978 28.2304 21.4653 27.9723 21.4653Z" fill="#A4123F"/>
<path fill-rule="evenodd" clip-rule="evenodd" d="M24.8607 25.0749C24.9535 24.8351 24.9911 24.6036 24.979 24.347C24.9531 23.8123 24.5524 23.3873 24.1078 22.9634C23.9534 22.8161 23.1692 22.0464 22.8992 21.3824L22.8565 21.2766C22.665 20.8018 22.5318 20.5104 22.2239 20.5088C21.9156 20.5104 21.7683 20.8257 21.5771 21.3005C21.5591 21.3177 21.044 22.2928 20.2863 23.0143C19.8617 23.4194 19.4931 23.8335 19.4684 24.347C19.4563 24.6036 19.4939 24.8351 19.5867 25.0749C19.9103 25.9081 21.1227 26.2811 22.1808 26.2807H22.2666C23.3247 26.2811 24.5371 25.9081 24.8607 25.0749Z" fill="#A4123F"/>
<path fill-rule="evenodd" clip-rule="evenodd" d="M17.1843 23.968C17.1471 24.5294 17.3026 24.9932 17.6458 25.347C18.1676 25.8848 19.1614 26.1978 20.5309 26.2578C20.0593 26.0689 19.5523 25.7403 19.3326 25.1734C19.2264 24.9004 19.1818 24.6262 19.1959 24.3339C19.226 23.6989 19.6652 23.23 20.1513 22.7658C20.3754 22.5523 20.6022 22.3063 20.791 22.072C20.7965 21.7551 20.2986 21.1252 19.6926 20.976C19.5304 20.9364 19.3565 20.916 19.1759 20.916C18.7755 20.916 18.4445 21.0167 18.3364 21.1115C18.3309 21.1166 18.3266 21.1205 18.3235 21.124C18.5605 21.7536 18.1585 22.2961 17.7699 22.821C17.4942 23.1936 17.2098 23.5779 17.1843 23.968Z" fill="#A4123F"/>
<path fill-rule="evenodd" clip-rule="evenodd" d="M15.2383 23.9659C15.2097 24.5363 15.4345 25.0354 15.9058 25.4495C16.6618 26.1138 17.9695 26.4797 19.5869 26.4797C19.6637 26.4797 19.7417 26.4789 19.82 26.477C18.729 26.3505 17.9334 26.0351 17.45 25.5368C17.0508 25.1255 16.8699 24.5916 16.9122 23.9499C16.9431 23.4798 17.2518 23.063 17.5503 22.6595C17.7093 22.4448 17.8735 22.2235 17.984 22.0026C17.895 21.8549 17.676 21.7209 17.3153 21.5948C17.0101 21.4874 16.69 21.4651 16.475 21.4651C16.2168 21.4651 16.0198 21.4976 15.9254 21.5282C16.2858 22.1428 15.9642 22.5925 15.6798 22.9905C15.4721 23.2808 15.2578 23.5805 15.2383 23.9659Z" fill="#A4123F"/>
<path fill-rule="evenodd" clip-rule="evenodd" d="M18.9969 27.1598C19.056 27.1218 19.1058 27.0901 19.1543 27.0564C19.2574 26.9855 19.3193 26.9181 19.3796 26.8527C19.4097 26.8194 19.4423 26.7857 19.4783 26.7524C19.1673 26.7489 18.8582 26.7309 18.5585 26.6987H18.5577C18.526 26.7034 18.5103 26.7152 18.4993 26.7242C18.4598 26.7544 18.4233 26.7853 18.3846 26.8182C18.128 27.0356 17.7139 27.387 16.8807 27.387L16.8525 27.3866C17.1341 27.5445 17.7883 27.7615 18.4751 27.7678H18.4762C18.546 27.7678 18.5518 27.7427 18.5546 27.722C18.5491 27.6796 18.5503 27.6409 18.5581 27.6044C18.6 27.4133 18.7837 27.2957 18.9969 27.1598Z" fill="#A4123F"/>
<path fill-rule="evenodd" clip-rule="evenodd" d="M20.0298 28.1198C20.2026 28.1198 20.3573 28.0999 20.4768 28.0615C20.563 28.0341 20.6221 27.9988 20.6499 27.9584C20.6186 27.9224 20.5927 27.8887 20.57 27.8535C20.3792 27.5585 20.277 27.0833 20.6178 26.7155C20.6213 26.7115 20.6249 26.708 20.6284 26.7041C20.5234 26.7131 20.4192 26.7209 20.3154 26.7272C19.8061 26.7915 19.7062 26.9 19.5801 27.0375C19.5131 27.1103 19.4371 27.1926 19.3094 27.2807C19.2585 27.316 19.2068 27.3493 19.1562 27.3814C18.9956 27.4841 18.8424 27.582 18.8248 27.6627C18.8193 27.6878 18.8287 27.7191 18.8538 27.7583C18.9799 27.9541 19.5186 28.1198 20.0298 28.1198Z" fill="#A4123F"/>
<path fill-rule="evenodd" clip-rule="evenodd" d="M22.2247 26.5742H22.2227H22.2074C21.4655 26.5742 21.024 26.678 20.8179 26.9005C20.5837 27.1536 20.655 27.4823 20.7991 27.7056C20.8309 27.7541 20.8673 27.7968 20.9104 27.8364L20.9421 27.863C21.0522 27.952 21.185 28.0013 21.3252 28.053C21.6359 28.1682 21.9849 28.2979 22.2235 28.8408C22.4625 28.2979 22.8115 28.1682 23.1221 28.053C23.2624 28.0013 23.3952 27.952 23.5053 27.863L23.537 27.8364C23.5801 27.7968 23.6165 27.7541 23.6482 27.7056C23.7924 27.4823 23.8637 27.1536 23.6294 26.9005C23.4234 26.678 22.9819 26.5742 22.2399 26.5742H22.2247Z" fill="#A4123F"/>
<path fill-rule="evenodd" clip-rule="evenodd" d="M23.7972 27.9584C23.825 27.9988 23.8841 28.0341 23.9703 28.0615C24.0898 28.0999 24.2445 28.1198 24.4173 28.1198C24.9285 28.1198 25.4672 27.9545 25.5933 27.7583C25.6184 27.7191 25.6278 27.6881 25.6223 27.6627C25.6047 27.582 25.4515 27.4841 25.2909 27.3818C25.2403 27.3493 25.1886 27.316 25.1377 27.2807C25.01 27.1926 24.934 27.1103 24.867 27.0375C24.7409 26.9 24.641 26.7915 24.1317 26.7272C24.0279 26.7209 23.9241 26.7135 23.8187 26.7041C23.8223 26.708 23.8262 26.7115 23.8293 26.7155C24.1701 27.0833 24.0679 27.5585 23.8771 27.8539C23.8544 27.8887 23.8285 27.9224 23.7972 27.9584Z" fill="#A4123F"/>
<path fill-rule="evenodd" clip-rule="evenodd" d="M25.9713 27.7678H25.9725C26.6588 27.7615 27.3134 27.5445 27.5951 27.387L27.5665 27.3874C26.7336 27.3874 26.3196 27.036 26.063 26.8182C26.0242 26.7853 25.9878 26.7547 25.9482 26.7242C25.9368 26.7156 25.9216 26.7034 25.8898 26.6991L25.889 26.6987C25.589 26.7309 25.2803 26.7493 24.9692 26.7528C25.0053 26.7857 25.0378 26.8198 25.068 26.8527C25.1279 26.9181 25.1902 26.9855 25.2928 27.0564C25.3418 27.0901 25.3915 27.1222 25.4507 27.1598C25.6634 27.2961 25.8475 27.4133 25.889 27.6044C25.8973 27.6413 25.8984 27.6796 25.893 27.722C25.8957 27.7431 25.9012 27.7678 25.9713 27.7678Z" fill="#A4123F"/>
<path fill-rule="evenodd" clip-rule="evenodd" d="M18.8054 32.965C18.8872 32.9995 20.0115 33.3262 20.2215 33.3552C20.5846 33.4049 20.9729 33.3936 21.2616 33.1425C21.2827 33.1241 21.3023 33.1052 21.3203 33.0861C21.3756 33.0273 21.4167 32.9642 21.4426 32.8988C21.5918 32.5219 21.2318 32.0573 20.0969 31.7827C18.7 31.4447 16.5756 31.3957 15.0874 31.8309C14.2432 32.0777 13.8941 32.4307 13.902 32.7825C13.9039 32.8773 13.9321 32.9721 13.9835 33.0649V33.0653C14.0775 33.2337 14.2483 33.3951 14.4802 33.5362C14.5907 33.6031 14.7164 33.6643 14.8551 33.7199C14.8559 33.7199 14.8563 33.7203 14.8567 33.7207C15.0995 33.8178 15.3816 33.8977 15.6867 33.9616C16.5227 34.1363 17.5342 34.1896 18.3999 34.1406C19.6582 34.0689 19.5657 33.6854 19.2939 33.5224C19.2355 33.4876 18.9186 33.3215 18.6965 33.153C18.5331 33.0289 18.6397 32.8957 18.8054 32.965Z" fill="#A4123F"/>
<path fill-rule="evenodd" clip-rule="evenodd" d="M19.7534 33.5752C19.7628 33.5999 19.7698 33.6253 19.7753 33.6508C19.7906 33.7217 19.7902 33.7954 19.7722 33.8686C19.6715 34.2784 19.1164 34.4022 18.6275 34.4472H31.3175C31.6841 34.1961 32.0398 33.9305 32.3838 33.6508H20.0573C19.9759 33.6324 19.8721 33.6065 19.7534 33.5752Z" fill="#A4123F"/>
<path fill-rule="evenodd" clip-rule="evenodd" d="M15.6208 34.2773C15.2933 34.2091 15.0014 34.1245 14.7531 34.0262L14.7398 34.0226L14.7233 34.0144C14.5701 33.9525 14.4318 33.8844 14.3128 33.8119C14.2285 33.7606 14.1533 33.7065 14.0832 33.6509H12.0046C12.3486 33.9306 12.7043 34.1962 13.071 34.4473H16.8794C16.4309 34.414 16.0008 34.3568 15.6208 34.2773Z" fill="#A4123F"/>
<path fill-rule="evenodd" clip-rule="evenodd" d="M24.8089 29.9499C24.7564 29.8011 24.7756 29.6295 24.8598 29.503C24.9103 29.4266 24.984 29.3623 25.0847 29.3055C25.1724 29.2566 25.2805 29.2154 25.4016 29.1802H8.18311C8.34019 29.4509 8.50511 29.7165 8.67709 29.977H24.8195C24.8155 29.9676 24.8116 29.9582 24.8089 29.9499Z" fill="#A4123F"/>
<path fill-rule="evenodd" clip-rule="evenodd" d="M30.855 29.4362C31.5025 29.6008 31.9938 29.7802 32.335 29.9768H35.7114C35.8833 29.7163 36.0483 29.4511 36.2054 29.1804H29.536C30.0073 29.249 30.4574 29.3352 30.855 29.4362Z" fill="#A4123F"/>
<path fill-rule="evenodd" clip-rule="evenodd" d="M32.9158 30.7958C32.8954 30.9603 32.8042 31.1225 32.6443 31.2784L32.591 31.327C32.5374 31.3744 32.4747 31.4206 32.4077 31.4672H34.6011C34.8177 31.2083 35.0265 30.9427 35.2274 30.6704H32.9166C32.9201 30.7119 32.9209 30.7535 32.9158 30.7958Z" fill="#A4123F"/>
<path fill-rule="evenodd" clip-rule="evenodd" d="M15.1989 31.4671C15.893 31.2888 16.7255 31.194 17.6249 31.194C18.5322 31.194 19.4332 31.2912 20.1645 31.4671H23.2546C23.186 31.29 23.1978 31.1364 23.2213 31.0377C23.2546 30.8959 23.3282 30.7729 23.4226 30.6707H9.16101C9.36158 30.9425 9.57038 31.2081 9.7874 31.4671H15.1989Z" fill="#A4123F"/>
<path fill-rule="evenodd" clip-rule="evenodd" d="M13.5793 32.7888C13.5754 32.6016 13.6306 32.3795 13.823 32.1609H10.4031C10.6612 32.4355 10.9288 32.7011 11.2054 32.9573H13.6012C13.5891 32.9013 13.5805 32.8453 13.5793 32.7888Z" fill="#A4123F"/>
<path fill-rule="evenodd" clip-rule="evenodd" d="M29.8206 32.4049L29.7109 32.4261C28.7425 32.6212 27.7389 32.7246 26.8104 32.7246C25.8793 32.7246 24.6943 32.6177 23.9312 32.1609H21.5584C21.616 32.2259 21.6673 32.2933 21.7041 32.3642C21.8025 32.5542 21.8221 32.7622 21.7629 32.9573H33.1829C33.4594 32.7011 33.727 32.4355 33.9851 32.1609H30.7995C30.4967 32.2498 30.1692 32.3321 29.8206 32.4049Z" fill="#A4123F"/>
<path fill-rule="evenodd" clip-rule="evenodd" d="M26.45 30.7211C26.289 30.7211 26.0849 30.6897 25.8687 30.6568C25.6372 30.6216 25.3747 30.5816 25.1063 30.5679C25.0398 30.5644 24.9716 30.5628 24.903 30.5628C24.5775 30.5628 24.2782 30.6004 24.04 30.6576C23.7106 30.7367 23.2013 31.1657 23.7846 31.6542C24.2657 32.1403 25.3402 32.4079 26.8108 32.4079C27.72 32.4079 28.7013 32.3068 29.6513 32.1153L29.7559 32.0953C30.9715 31.8407 31.952 31.4673 32.3778 31.094L32.424 31.0517C32.5306 30.9475 32.5909 30.8484 32.6023 30.7567C32.6222 30.5961 32.4844 30.1758 30.7772 29.7421C29.7602 29.484 28.3926 29.3222 27.2076 29.3198H27.1414C26.0751 29.3233 25.4844 29.444 25.2391 29.5811C25.1827 29.6128 25.1443 29.6454 25.1232 29.6779C25.0997 29.7131 25.0844 29.7778 25.1063 29.8424C25.2748 30.249 25.9486 30.3462 26.564 30.3462C26.9099 30.3634 26.895 30.5095 26.8308 30.5867C26.7309 30.707 26.5656 30.7211 26.45 30.7211Z" fill="#A4123F"/>
<path fill-rule="evenodd" clip-rule="evenodd" d="M20.1249 12.7065L20.1488 12.6779C20.8848 11.8062 21.7353 10.6773 21.7803 9.67519C21.7796 9.57882 21.7788 9.47971 21.7772 9.37904C21.7706 8.91874 21.7639 8.44278 21.8446 8.129C21.9167 7.84695 22.026 7.81404 22.1016 7.81404C22.1145 7.81404 22.1266 7.81522 22.1368 7.81639C22.1928 7.82383 22.2261 7.89748 22.2359 8.03537C22.2426 8.12547 22.2305 8.37305 22.2179 8.64061C22.1897 9.2337 22.1513 10.0462 22.2352 10.4015C22.33 10.8026 22.5137 11.2022 22.6915 11.5884C22.9242 12.0938 23.144 12.5713 23.1601 13.0179C23.1886 13.8174 22.7993 13.8825 22.5149 13.9299C22.3852 13.9514 22.2234 13.978 22.2234 14.1347C22.2234 14.1959 22.27 14.2605 22.3562 14.2605C22.3891 14.2605 22.4259 14.2511 22.4847 14.2362C22.5744 14.2135 22.7103 14.179 22.8647 14.179C22.9567 14.179 23.0449 14.1915 23.1268 14.2158C23.3728 14.2887 23.5635 14.4662 23.6372 14.6902C23.705 14.896 23.7085 15.2427 23.3426 15.7261C23.2678 15.8249 23.0997 15.9577 22.7229 16.0297C22.6112 16.0501 22.601 16.1194 22.6046 16.1594C22.6097 16.2115 22.6528 16.264 22.7385 16.264C22.7754 16.2632 22.8114 16.2624 22.8467 16.2624C23.4119 16.2624 23.8389 16.3835 24.0485 16.6028C24.1425 16.7016 24.1872 16.8167 24.1813 16.946C24.17 17.1955 23.8256 17.2903 23.5953 17.3538C23.4354 17.3977 23.3301 17.4263 23.3218 17.5371L23.3195 17.5912L23.3978 17.6656H23.4468C23.4781 17.6656 23.513 17.6562 23.5831 17.6366C23.7383 17.5939 23.8699 17.5716 23.9635 17.5716C24.0054 17.5716 24.0395 17.5759 24.0661 17.5845C24.1414 17.6092 24.1515 17.6445 24.1523 17.6692C24.1578 17.7957 23.958 18.019 23.5063 18.2102L23.4915 18.218L23.4911 18.2168C23.269 18.3089 22.7816 18.368 22.2497 18.368C21.4223 18.368 20.4571 18.2129 20.2921 17.8725C20.251 17.7871 20.2671 17.6844 20.3395 17.5665C20.356 17.5889 20.3811 17.6112 20.4187 17.6292C20.9628 17.9195 21.6926 17.9626 22.0792 17.9626C22.346 17.9626 22.538 17.9422 22.621 17.925C22.7272 17.9026 22.887 17.8693 22.8741 17.7393C22.8659 17.6602 22.8028 17.6202 22.6876 17.6202C22.67 17.6202 22.6496 17.621 22.6269 17.6225C22.5458 17.628 22.422 17.6351 22.2818 17.6351C21.7596 17.6351 21.2437 17.534 20.6619 17.3193C20.3736 17.2328 19.8083 16.8912 19.6881 16.7956C19.2611 16.4559 19.0202 15.8785 19.0202 15.1844C18.9767 14.0654 19.7809 13.1135 20.1249 12.7065ZM22.7013 18.9709C22.6124 18.9831 22.5223 18.9917 22.4334 18.9964C22.3723 18.9995 22.3096 19.0011 22.2453 19.0011C22.0926 19.0011 21.9417 18.9909 21.7968 18.9713C21.2535 18.8969 20.9287 18.6983 20.9287 18.5494C20.9287 18.538 20.9303 18.5267 20.9338 18.5153C21.3443 18.6007 21.7917 18.6191 22.0984 18.6191C22.6896 18.6191 23.2321 18.5545 23.5275 18.4499C23.5553 18.484 23.5694 18.5173 23.5694 18.5494C23.5694 18.6983 23.2447 18.8969 22.7013 18.9709ZM22.2493 19.5483C22.0205 19.5483 21.8203 19.4234 21.8203 19.2808C21.8203 19.2565 21.8258 19.2322 21.8372 19.2091C21.9037 19.2165 21.9723 19.2224 22.042 19.2263C22.1098 19.2298 22.178 19.2322 22.2532 19.2322C22.3915 19.2318 22.5282 19.224 22.661 19.2091C22.6719 19.2326 22.6778 19.2573 22.6778 19.2808C22.6778 19.4234 22.4776 19.5483 22.2493 19.5483ZM18.5716 15.3955C18.5751 15.4319 18.5834 15.5032 18.5983 15.6027C18.6053 15.6494 18.6139 15.7022 18.6241 15.761C18.6331 15.8111 18.6429 15.8652 18.6547 15.9236C15.3672 17.324 13.0563 20.5872 13.0563 24.38C13.0563 24.885 13.0998 25.3989 13.186 25.9102H15.8287C15.7621 25.8604 15.697 25.8095 15.6363 25.7562C15.0746 25.2626 14.796 24.6366 14.8309 23.9452C14.856 23.4406 15.1169 23.0755 15.3472 22.7535C15.6504 22.3301 15.8169 22.097 15.536 21.6759C15.4585 21.5587 15.464 21.4118 15.5501 21.3006C15.7147 21.0883 16.1918 21.0565 16.4613 21.0565C16.8131 21.0565 17.1735 21.1121 17.4505 21.2093C17.6655 21.2849 17.8414 21.3656 17.9824 21.4537C17.9774 21.3809 17.9601 21.31 17.9307 21.2402L17.9276 21.232L17.9139 21.1827L17.9127 21.1721C17.897 21.0338 17.9507 20.9069 18.0678 20.8046C18.2739 20.624 18.7079 20.5077 19.1729 20.5077C19.388 20.5077 19.5956 20.532 19.7903 20.5798C20.3341 20.7134 20.7861 21.1196 21.0212 21.5164C21.0846 21.4122 21.1344 21.3159 21.17 21.2289L21.2123 21.1239C21.3561 20.767 21.5191 20.3624 21.8567 20.188C21.9688 20.1328 22.0855 20.1046 22.2054 20.1022L22.2113 20.1011L22.2273 20.1022C22.3542 20.1026 22.4749 20.1308 22.5885 20.1869C22.9281 20.362 23.0911 20.7666 23.2353 21.1239L23.2776 21.2289C23.3132 21.3159 23.3626 21.4122 23.426 21.5168C23.6611 21.1196 24.1132 20.7134 24.6573 20.5798C24.852 20.532 25.0592 20.5077 25.2743 20.5077C25.7396 20.5077 26.1737 20.624 26.3797 20.8046C26.4965 20.9065 26.5502 21.0338 26.5349 21.1721L26.5337 21.1827L26.52 21.2324L26.5165 21.2402C26.4875 21.31 26.4702 21.3809 26.4651 21.4537C26.6062 21.3656 26.7821 21.2849 26.9971 21.2093C27.2741 21.1121 27.6345 21.0565 27.9859 21.0565C28.2558 21.0565 28.7329 21.0883 28.8975 21.3006C28.9836 21.4118 28.9891 21.5587 28.9116 21.6759C28.6303 22.097 28.7972 22.3301 29.0996 22.7531C29.3303 23.0755 29.5916 23.4402 29.6167 23.9452C29.6515 24.6366 29.3726 25.2626 28.8109 25.7562C28.7502 25.8095 28.6855 25.8604 28.6185 25.9102H31.3004C31.3866 25.3989 31.43 24.885 31.43 24.38C31.43 20.541 29.062 17.2465 25.7107 15.875C25.6409 15.8464 25.5696 15.8209 25.4991 15.7939C25.5093 15.7579 25.5222 15.7234 25.5316 15.6866C25.5779 15.479 25.608 15.2376 25.6131 15.1977C25.6515 14.7459 25.5931 14.2918 25.4408 13.8707L25.2872 13.5189C25.1564 13.2655 24.9926 13.039 24.7999 12.8451C24.7509 12.7962 24.7027 12.7507 24.6545 12.7049L24.6479 12.6986L24.4524 12.5141C24.4011 12.4667 24.3498 12.4201 24.2992 12.3743C23.6117 11.7494 23.1154 11.2982 23.2737 10.2232C23.4566 9.22822 23.1358 8.19129 22.7268 7.92921C22.699 7.91119 22.67 7.89944 22.641 7.88847C22.623 7.73491 22.6081 7.64285 22.5956 7.64128C22.4843 7.43641 22.3045 7.37843 22.1893 7.36237C22.1603 7.35923 22.1325 7.35767 22.1051 7.35767C21.9057 7.35767 21.5488 7.44346 21.4019 8.01579C21.3063 8.38911 21.3134 8.89602 21.3204 9.38687C21.322 9.48559 21.3232 9.58313 21.324 9.6603C21.2864 10.4998 20.5092 11.5293 19.9286 12.2293L19.7394 12.4554C19.538 12.6939 19.2783 13.0183 19.048 13.4218L18.8682 13.7739C18.6484 14.2581 18.5458 14.7368 18.5634 15.1887C18.5634 15.2533 18.5669 15.3199 18.5716 15.3955Z" fill="#A4123F"/>
<path fill-rule="evenodd" clip-rule="evenodd" d="M27.6746 44.1821L27.4795 45.011L28.1623 44.8798L27.6746 44.1821Z" fill="#A4123F"/>
<path fill-rule="evenodd" clip-rule="evenodd" d="M14.5063 44.0251C14.6014 43.9937 14.6653 43.9189 14.6982 43.801C14.7307 43.6854 14.7123 43.5875 14.6445 43.5131C14.574 43.4375 14.4592 43.3764 14.2994 43.3313L14.2171 43.3086L14.0291 43.9789L14.1314 44.0075C14.2837 44.0498 14.4087 44.056 14.5063 44.0251Z" fill="#A4123F"/>
<path fill-rule="evenodd" clip-rule="evenodd" d="M21.9265 44.6929L21.5692 45.4654L22.2645 45.474L21.9265 44.6929Z" fill="#A4123F"/>
<path fill-rule="evenodd" clip-rule="evenodd" d="M31.6815 43.1042L31.6118 43.9531L32.2671 43.722L31.6815 43.1042Z" fill="#A4123F"/>
<path fill-rule="evenodd" clip-rule="evenodd" d="M25.6641 45.7637C25.9551 45.7272 26.171 45.636 26.3124 45.4922C26.4538 45.348 26.5102 45.1537 26.4801 44.9116C26.4503 44.6762 26.3477 44.5046 26.1745 44.3977C26.0018 44.2911 25.7722 44.2551 25.489 44.2911L25.3809 44.3044L25.5665 45.7762L25.6641 45.7637Z" fill="#A4123F"/>
<path fill-rule="evenodd" clip-rule="evenodd" d="M39.3438 38.3853L39.3117 39.2334L39.9467 38.9827L39.3438 38.3853Z" fill="#A4123F"/>
<path fill-rule="evenodd" clip-rule="evenodd" d="M17.9571 44.3667L17.4964 45.0832L18.1835 45.1874L17.9571 44.3667Z" fill="#A4123F"/>
<path fill-rule="evenodd" clip-rule="evenodd" d="M7.5163 39.2683L6.93927 39.8912L7.58485 40.1145L7.5163 39.2683Z" fill="#A4123F"/>
<path fill-rule="evenodd" clip-rule="evenodd" d="M2.45875 36.6841L2.39725 38.3439L3.65003 37.2537L3.13607 39.2391L2.91278 39.1325L3.25555 37.8954L2.16887 38.8223L2.20921 37.3955L1.45982 38.4387L1.23653 38.3318L2.45875 36.6841ZM1.70426 33.9953C1.71249 33.9553 1.73913 33.8342 2.02627 33.8327C3.34839 33.9228 3.79889 35.1642 3.93169 36.3002C2.44739 35.4686 1.61221 34.4144 1.70426 33.9953ZM4.93375 37.7736L5.06538 39.9736L4.82289 39.8796L4.79312 39.3515L3.97165 39.0318L3.59283 39.4016L3.35309 39.3076L4.93375 37.7736ZM5.61538 38.3561L5.68981 38.1492L6.77062 38.5398L6.69619 38.7459L6.26723 38.5907L5.68903 40.1922L5.46378 40.1107L6.04198 38.5096L5.61538 38.3561ZM7.90235 40.9662L7.65673 40.8816L7.60698 40.3543L6.77336 40.066L6.40865 40.4491L6.16538 40.3653L7.68807 38.7721L7.90235 40.9662ZM2.71691 42.427C2.66324 42.3017 2.60291 42.1747 2.53632 42.0721C2.36473 41.8073 2.15437 41.7611 2.00747 41.7705C1.43749 41.803 0.818151 42.6985 0.497709 43.3018C0.438165 42.9171 0.430722 42.0541 0.501235 41.754C0.622282 41.2369 0.867902 40.761 1.10569 40.3007C1.24123 40.0382 1.38069 39.7671 1.49821 39.4874C2.01844 39.8353 2.57862 40.1275 3.20423 40.381C2.98329 41.0226 2.77371 41.7035 2.71691 42.427ZM10.8909 41.8104L10.974 44.0214L10.7303 43.9184L10.7123 43.3876L9.88533 43.0377L9.49281 43.3942L9.2511 43.2924L10.8909 41.8104ZM10.3679 39.6308C10.4212 39.4812 10.5031 39.4373 10.6578 39.4373C10.7139 39.4373 10.7801 39.4435 10.8576 39.4522C10.9148 39.4584 10.9728 39.4647 11.03 39.4671C11.0218 39.614 10.9677 39.7934 10.9152 39.9681C10.8843 40.0715 10.8525 40.1769 10.8294 40.2791C10.8055 40.2599 10.782 40.2407 10.7585 40.2223C10.4675 39.9892 10.2963 39.8329 10.3679 39.6308ZM12.1692 42.3162L12.3035 43.976L13.4384 42.7569L13.1552 44.7892L12.9174 44.7066L13.1164 43.4381L12.1296 44.4762L12.0015 43.0511L11.3688 44.1691L11.1314 44.0864L12.1692 42.3162ZM14.0401 43.0366L14.4021 43.138C14.6089 43.196 14.7589 43.2861 14.8534 43.4103C14.9454 43.5341 14.9689 43.681 14.9219 43.8475C14.8863 43.9756 14.8169 44.0778 14.7123 44.1546C14.6066 44.2333 14.4769 44.2635 14.3237 44.2439L14.6923 45.2158L14.4076 45.1359L14.0777 44.1993L13.9755 44.1703L13.7561 44.9533L13.5214 44.8875L14.0401 43.0366ZM15.4472 43.417L15.6842 43.4738L15.2314 45.3416L14.9944 45.2844L15.4472 43.417ZM15.9291 43.536L17.0749 43.7746L17.0302 43.9889L16.5754 43.8941L16.2295 45.5621L15.991 45.5124L16.3369 43.8447L15.8844 43.7507L15.9291 43.536ZM18.6599 45.9691L18.3986 45.9292L18.2505 45.4195L17.3632 45.2848L17.0702 45.7278L16.8109 45.6886L18.0362 43.8475L18.6599 45.9691ZM19.1304 43.9955C19.3521 44.2725 19.5746 44.5436 19.8002 44.8076C20.0255 45.074 20.248 45.3455 20.4701 45.6217L20.5864 44.2071L20.8297 44.2271L20.6656 46.221L19.3258 44.5949L19.2079 46.0224L18.965 46.0024L19.1304 43.9955ZM21.9328 44.1679L22.8444 46.1818L22.58 46.1787L22.363 45.6945L21.4651 45.6835L21.2363 46.1623L20.9743 46.1591L21.9328 44.1679ZM23.8089 44.8734C24.0686 45.1061 24.3264 45.3443 24.5845 45.5876L24.5034 44.1695L24.7467 44.1558L24.8611 46.1536L23.3094 44.7281L23.3913 46.1587L23.148 46.1724L23.0329 44.162C23.2906 44.4053 23.5488 44.6431 23.8089 44.8734ZM25.5106 44.0676C25.8428 44.0257 26.1186 44.0786 26.3379 44.2228C26.5581 44.3701 26.685 44.5902 26.7222 44.8836C26.7595 45.1798 26.6882 45.4246 26.5115 45.6193C26.3344 45.8132 26.0751 45.9331 25.7378 45.9754L25.3516 46.0236L25.1114 44.1182L25.5106 44.0676ZM27.5758 43.6661L28.8721 45.4579L28.612 45.5077L28.3025 45.0764L27.4211 45.2456L27.2926 45.7607L27.0352 45.8101L27.5758 43.6661ZM29.9545 44.6736L30.2079 43.026L31.1164 44.8679L30.8735 44.9338L30.3247 43.7711L30.092 45.1853L29.1847 44.0774L29.2893 45.3588L29.0464 45.4242L28.9101 43.375L29.9545 44.6736ZM31.5069 42.6088L33.0547 44.1871L32.8052 44.2752L32.435 43.8949L31.5888 44.1938L31.5387 44.7226L31.2919 44.8092L31.5069 42.6088ZM32.6657 42.2625L33.4331 42.8231L33.5452 41.879L33.8017 41.7677L33.6509 43.017L33.9851 43.7836L33.7614 43.8808L33.4272 43.1145L32.4087 42.3741L32.6657 42.2625ZM34.0932 39.2003C34.1943 39.1783 34.309 39.1537 34.3553 39.1842C34.3811 39.2011 34.4027 39.2477 34.416 39.3151C34.4532 39.5051 34.2781 39.7283 34.0748 39.9422C34.0043 39.6708 33.9608 39.4322 33.9396 39.2301C33.9917 39.2226 34.0427 39.2112 34.0932 39.2003ZM34.8524 43.3739L33.971 41.6659L34.1876 41.5538L35.0694 43.2622L34.8524 43.3739ZM37.6572 40.0848L37.7493 38.4254L38.8148 40.1792L38.5825 40.2646L37.9346 39.1564L37.841 40.5823L36.8459 39.5575L37.0712 40.8229L36.8389 40.9083L36.5102 38.8826L37.6572 40.0848ZM39.1505 37.8974L40.742 39.4224L40.5003 39.5176L40.1195 39.1501L39.2996 39.4741L39.2726 40.0026L39.033 40.097L39.1505 37.8974ZM40.9641 37.2459L41.0467 37.448L40.6248 37.6216L41.2696 39.196L41.0479 39.2869L40.4031 37.7117L39.9836 37.8836L39.9005 37.6807L40.9641 37.2459ZM42.9682 33.6419C43.2499 33.645 43.2765 33.7645 43.2851 33.8045C43.3772 34.2236 42.5424 35.277 41.0585 36.1087C41.178 35.1219 41.594 33.7535 42.9682 33.6419ZM43.8837 40.1095C44.1211 40.5702 44.3671 41.0465 44.4882 41.5632C44.5583 41.8633 44.5508 42.7267 44.4913 43.111C44.1709 42.5069 43.5515 41.6122 42.9819 41.5793C42.9714 41.5789 42.9612 41.5785 42.9502 41.5785C42.806 41.5785 42.6125 41.6349 42.4527 41.8817C42.3861 41.984 42.3262 42.1113 42.2721 42.2363C42.2157 41.5151 42.0061 40.8338 41.7848 40.1902C42.354 39.9595 42.9243 39.6747 43.4904 39.2963C43.6079 39.5756 43.7478 39.8463 43.8837 40.1095ZM42.3062 36.6681L42.5263 36.5737L43.2816 38.3408L43.0615 38.4348L42.6987 37.5863L41.8576 37.9459L42.22 38.7944L41.9998 38.8885L41.2446 37.1217L41.4647 37.0273L41.7695 37.7399L42.6106 37.3803L42.3062 36.6681ZM1.25964 39.3225C1.14251 39.6112 0.995609 39.8952 0.853408 40.171C0.60818 40.6466 0.354333 41.1386 0.22506 41.6894C0.176092 41.8994 0.0648385 43.5909 0.410743 43.7158C0.472246 43.7374 0.591335 43.746 0.690445 43.547C1.04732 42.8297 1.64354 42.0752 2.02353 42.0533C2.09091 42.0494 2.19276 42.0631 2.29892 42.2265C2.3902 42.3675 2.4752 42.5802 2.54337 42.7506C2.65149 43.0217 2.70006 43.1443 2.84422 43.1177C2.98525 43.091 2.98525 42.9316 2.98525 42.8039C2.98525 41.9859 3.21872 41.2103 3.46826 40.484C4.15341 40.7414 4.84091 40.9302 5.50765 41.1135C6.43059 41.3674 7.30573 41.6075 8.16716 42.013L7.96228 42.2202C7.78679 42.409 7.70295 42.6374 7.72567 42.863C7.748 43.0804 7.86866 43.2771 8.06492 43.4173C11.2921 45.7149 16.5891 47.0868 22.2353 47.0868C25.797 47.0868 32.442 46.5591 36.9345 43.0295C37.0344 42.9508 37.0927 42.8387 37.1033 42.7056C37.1225 42.4541 36.9674 42.1861 36.8698 42.0811L36.6994 41.8806C37.5985 41.4398 38.5147 41.1884 39.4814 40.9231C40.1544 40.7379 40.8364 40.5506 41.5207 40.2932C41.7711 41.0219 42.0038 41.7987 42.0038 42.6131C42.0038 42.7408 42.0038 42.8999 42.1452 42.9273C42.2858 42.9543 42.3375 42.8309 42.446 42.5598C42.5142 42.389 42.5988 42.1767 42.6905 42.0357C42.7962 41.8723 42.8977 41.8586 42.9659 41.8629C43.3455 41.8841 43.9417 42.639 44.2986 43.3562C44.3977 43.5545 44.516 43.5478 44.5783 43.5247C44.9242 43.4005 44.8129 41.7082 44.764 41.4986C44.6351 40.9474 44.3812 40.4554 44.1356 39.9794C43.993 39.7037 43.8465 39.4193 43.729 39.1309C43.9958 38.9394 44.2621 38.7255 44.5269 38.4861C45.3758 37.7164 44.8721 36.6971 44.4674 35.8779L44.3855 35.7118C44.1783 35.286 44.2167 34.8673 44.2508 34.4975C44.2829 34.15 44.3131 33.8221 44.0984 33.6C43.9045 33.399 43.5503 33.3242 42.9486 33.3587V33.3591C41.6904 33.4594 40.9151 34.4904 40.7561 36.2705C40.6534 36.3226 40.5477 36.3739 40.4399 36.4232C38.8724 37.1433 36.8647 37.5538 35.5367 37.8253C34.5966 38.0172 34.0963 38.1234 33.8989 38.2519C33.6838 38.3913 33.6266 38.7141 33.6431 39.0726C33.6251 39.1266 33.638 39.1803 33.6474 39.2195C33.6529 39.2422 33.6584 39.2653 33.6584 39.2845C33.6584 39.4749 33.7011 39.6508 33.7418 39.8204C33.7735 39.954 33.8045 40.0817 33.8119 40.2067C31.7435 41.9742 27.215 43.1572 22.2353 43.1572C17.5509 43.1572 13.3326 42.1505 11.0911 40.5447C11.2411 40.059 11.5847 38.7639 11.0899 38.4423C10.8921 38.3142 10.3926 38.208 9.45285 38.0161C8.12446 37.7446 6.1172 37.3344 4.54946 36.614C4.44134 36.5643 4.33596 36.513 4.23333 36.4612C4.07311 34.6643 3.29746 33.6329 2.04077 33.5495C2.03489 33.5491 2.02941 33.5487 2.02353 33.5483H2.02118C1.43161 33.5177 1.08257 33.5922 0.890623 33.7908C0.67595 34.0133 0.706506 34.3412 0.738237 34.6882C0.772318 35.058 0.810708 35.4768 0.603479 35.9026L0.522389 36.0679C0.117331 36.8878 -0.386836 37.9071 0.462453 38.6765C0.720217 38.9108 0.98464 39.1247 1.25964 39.3225Z" fill="#A4123F"/>
<path fill-rule="evenodd" clip-rule="evenodd" d="M10.6868 42.2942L10.0643 42.8747L10.7044 43.1458L10.6868 42.2942Z" fill="#A4123F"/>
<path fill-rule="evenodd" clip-rule="evenodd" d="M4.74376 38.2629L4.14362 38.8635L4.78019 39.1111L4.74376 38.2629Z" fill="#A4123F"/>
<path fill-rule="evenodd" clip-rule="evenodd" d="M35.7336 25.6475L31.7194 25.3027C31.7096 25.4089 31.6967 25.5139 31.683 25.6193L35.6979 25.964C35.7104 25.8586 35.7238 25.7532 35.7336 25.6475Z" fill="#A4123F"/>
<path fill-rule="evenodd" clip-rule="evenodd" d="M35.6052 22.1079L31.6279 22.8154C31.6455 22.92 31.6612 23.025 31.6753 23.1307L35.6557 22.4225C35.6408 22.3171 35.6228 22.2125 35.6052 22.1079Z" fill="#A4123F"/>
<path fill-rule="evenodd" clip-rule="evenodd" d="M30.8948 20.4376C30.939 20.534 30.9837 20.6303 31.0248 20.7287L34.6939 19.0105C34.6519 18.913 34.6073 18.8166 34.563 18.7202L30.8948 20.4376Z" fill="#A4123F"/>
<path fill-rule="evenodd" clip-rule="evenodd" d="M32.8745 15.9667C32.8087 15.8836 32.7436 15.7994 32.6755 15.7175L29.5714 18.3304C29.6391 18.4123 29.7041 18.4965 29.7692 18.5807L32.8745 15.9667Z" fill="#A4123F"/>
<path fill-rule="evenodd" clip-rule="evenodd" d="M30.4499 13.5856C30.3652 13.521 30.2798 13.4583 30.1937 13.396L27.8334 16.6996C27.9196 16.7619 28.0038 16.8265 28.0877 16.8919L30.4499 13.5856Z" fill="#A4123F"/>
<path fill-rule="evenodd" clip-rule="evenodd" d="M26.0493 15.6727L27.5203 11.8853C27.4224 11.8438 27.3225 11.8077 27.2238 11.7686L25.7551 15.5501C25.8538 15.5893 25.9522 15.63 26.0493 15.6727Z" fill="#A4123F"/>
<path fill-rule="evenodd" clip-rule="evenodd" d="M8.81379 25.9616L12.7743 25.6212C12.7605 25.5162 12.7476 25.4108 12.7374 25.3047L8.77814 25.6451C8.78832 25.7509 8.80125 25.8563 8.81379 25.9616Z" fill="#A4123F"/>
<path fill-rule="evenodd" clip-rule="evenodd" d="M12.8298 22.8111L8.90619 22.113C8.88856 22.2176 8.87054 22.3222 8.85565 22.4276L12.782 23.1261C12.7965 23.0207 12.8122 22.9157 12.8298 22.8111Z" fill="#A4123F"/>
<path fill-rule="evenodd" clip-rule="evenodd" d="M9.81299 19.0217L13.4362 20.718C13.4777 20.62 13.5224 20.5236 13.567 20.4273L9.94422 18.7314C9.89995 18.8278 9.8549 18.9238 9.81299 19.0217Z" fill="#A4123F"/>
<path fill-rule="evenodd" clip-rule="evenodd" d="M14.8968 18.3178L11.8244 15.7319C11.7567 15.8138 11.692 15.898 11.6262 15.9815L14.6986 18.5673C14.7637 18.4835 14.8291 18.3993 14.8968 18.3178Z" fill="#A4123F"/>
<path fill-rule="evenodd" clip-rule="evenodd" d="M16.2744 16.9666C16.3575 16.9 16.4397 16.8334 16.5251 16.7695L14.1347 13.5283C14.0501 13.5922 13.9675 13.6596 13.884 13.7254L16.2744 16.9666Z" fill="#A4123F"/>
<path fill-rule="evenodd" clip-rule="evenodd" d="M18.3094 15.717L16.6712 12.0298C16.5744 12.0737 16.4765 12.1152 16.3809 12.1614L18.0207 15.8522C18.1159 15.8052 18.2127 15.7609 18.3094 15.717Z" fill="#A4123F"/>
<path fill-rule="evenodd" clip-rule="evenodd" d="M31.7623 24.3748L38.7716 24.0646C38.7697 23.9584 38.7665 23.8523 38.7626 23.7461L31.754 24.0564C31.7579 24.1621 31.7619 24.2683 31.7623 24.3748Z" fill="#A4123F"/>
<path fill-rule="evenodd" clip-rule="evenodd" d="M31.429 21.9085L38.134 19.7899C38.1046 19.6877 38.0753 19.5858 38.0435 19.4844L31.3417 21.6017C31.373 21.7032 31.4012 21.8058 31.429 21.9085Z" fill="#A4123F"/>
<path fill-rule="evenodd" clip-rule="evenodd" d="M30.4665 19.6139L36.4029 15.827C36.3481 15.7361 36.2889 15.6476 36.2325 15.5579L30.3012 19.3413C30.358 19.431 30.4129 19.5223 30.4665 19.6139Z" fill="#A4123F"/>
<path fill-rule="evenodd" clip-rule="evenodd" d="M33.6974 12.4534C33.6206 12.3798 33.5446 12.3057 33.4667 12.2336L28.7145 17.4257C28.7924 17.4982 28.87 17.5706 28.9452 17.6459L33.6974 12.4534Z" fill="#A4123F"/>
<path fill-rule="evenodd" clip-rule="evenodd" d="M30.3552 9.96539C30.2627 9.91328 30.1711 9.85922 30.0774 9.80908L26.7704 16.0239C26.864 16.0749 26.9549 16.1289 27.0466 16.183L30.3552 9.96539Z" fill="#A4123F"/>
<path fill-rule="evenodd" clip-rule="evenodd" d="M12.7027 24.0552L5.74891 23.7473C5.745 23.8535 5.74186 23.9596 5.7403 24.0658L12.6944 24.3737C12.6948 24.2672 12.6987 24.161 12.7027 24.0552Z" fill="#A4123F"/>
<path fill-rule="evenodd" clip-rule="evenodd" d="M13.1174 21.5941L6.46565 19.4924C6.43431 19.5939 6.40454 19.6961 6.37555 19.798L13.03 21.9008C13.0582 21.7982 13.086 21.6956 13.1174 21.5941Z" fill="#A4123F"/>
<path fill-rule="evenodd" clip-rule="evenodd" d="M14.1635 19.3294L8.27133 15.571C8.21492 15.6608 8.15616 15.7493 8.10132 15.8402L13.9978 19.6016C14.0514 19.51 14.1067 19.4191 14.1635 19.3294Z" fill="#A4123F"/>
<path fill-rule="evenodd" clip-rule="evenodd" d="M15.642 17.5215L10.8307 12.4377C10.7539 12.5114 10.6756 12.5827 10.6 12.6579L15.4148 17.7452C15.4893 17.6692 15.5653 17.5951 15.642 17.5215Z" fill="#A4123F"/>
<path fill-rule="evenodd" clip-rule="evenodd" d="M13.5848 10.3011L17.1179 16.3628C17.2076 16.3056 17.2977 16.2496 17.389 16.1951L13.8579 10.137C13.7666 10.191 13.6753 10.2455 13.5848 10.3011Z" fill="#A4123F"/>
<path fill-rule="evenodd" clip-rule="evenodd" d="M10.9559 10.5069L10.7181 10.3L10.3409 10.7345C10.2633 10.8234 10.2265 10.9241 10.2304 11.0353C10.2331 11.1525 10.275 11.2465 10.3565 11.317C10.458 11.4087 10.6041 11.4764 10.7953 11.5207C10.9845 11.5634 11.2023 11.5767 11.4487 11.5614L11.4667 11.4204C11.3159 11.4181 11.1749 11.4001 11.044 11.3664C10.9206 11.3288 10.8239 11.2794 10.7545 11.2191C10.6911 11.1642 10.6542 11.0941 10.6448 11.0091C10.6351 10.9241 10.657 10.8508 10.7103 10.7893L10.9559 10.5069Z" fill="#A4123F"/>
<path fill-rule="evenodd" clip-rule="evenodd" d="M12.7763 6.94732C12.8265 6.91763 12.8805 6.90014 12.9377 6.89444C12.9937 6.88631 13.0451 6.892 13.0921 6.91153L13.6609 7.16333C13.7522 7.10963 13.6687 7.0177 13.4102 6.88793C13.2797 6.82081 13.1916 6.77891 13.1461 6.76183C13.0231 6.70284 12.8978 6.66989 12.7705 6.66379C12.6443 6.65972 12.5393 6.6825 12.4547 6.73254C12.4069 6.76712 12.3713 6.80088 12.347 6.83383L12.6494 7.05512C12.6862 7.0116 12.7285 6.9758 12.7763 6.94732Z" fill="#A4123F"/>
<path fill-rule="evenodd" clip-rule="evenodd" d="M14.3626 6.33484C14.4135 6.30702 14.4605 6.28391 14.504 6.26511C14.5812 6.23181 14.6823 6.21653 14.8064 6.22006C14.9416 6.2275 15.081 6.25257 15.226 6.29605L15.4246 6.20987L14.9032 5.7488C14.8241 5.66575 14.7383 5.61286 14.6454 5.58975C14.5514 5.56468 14.4613 5.57095 14.3743 5.60855C14.2799 5.65517 14.2122 5.70022 14.171 5.7437L14.477 5.95485C14.4785 5.93135 14.4919 5.9098 14.5177 5.88982C14.5522 5.86357 14.5851 5.8436 14.6164 5.82989C14.6619 5.8103 14.7159 5.81265 14.7782 5.83733C14.8472 5.86436 14.9142 5.91019 14.9788 5.97365L15.2926 6.20243L15.2565 6.2181C14.9569 6.12761 14.7253 6.06885 14.5624 6.04221C14.3794 6.00969 14.2494 6.01048 14.1722 6.04377C14.1326 6.05827 14.0974 6.07629 14.0668 6.09783C14.041 6.11781 14.021 6.13779 14.0069 6.15816L14.2846 6.403C14.2987 6.38263 14.325 6.35991 14.3626 6.33484Z" fill="#A4123F"/>
<path fill-rule="evenodd" clip-rule="evenodd" d="M11.428 9.30099L11.8702 9.76716C11.8538 9.90583 11.8283 10.0241 11.7943 10.1217C11.7602 10.2192 11.7155 10.2944 11.6603 10.3465C11.6105 10.3939 11.5514 10.4249 11.482 10.4398C11.4147 10.4566 11.3481 10.4547 11.2815 10.4343C11.2744 10.4268 11.2701 10.4202 11.2681 10.4147C11.2646 10.4033 11.265 10.3959 11.2689 10.3924C11.3516 10.2811 11.4064 10.175 11.4331 10.0735C11.4581 9.96616 11.4499 9.89251 11.4084 9.85256C11.3774 9.81652 11.3226 9.78361 11.2439 9.75345C11.1773 9.73386 11.095 9.71858 11.0025 9.70683C11.1416 9.56894 11.2838 9.43379 11.428 9.30099ZM17.0467 6.90003C16.973 6.97446 16.9029 7.02381 16.8363 7.0481C16.787 7.06612 16.7423 7.06573 16.702 7.04693C16.6596 7.03165 16.631 7.00305 16.6158 6.96074C16.5895 6.88122 16.5942 6.8064 16.6307 6.73745C16.6616 6.66185 16.7157 6.60975 16.792 6.58193C16.8536 6.5596 16.926 6.55099 17.0095 6.55686C17.0894 6.56156 17.1689 6.58428 17.248 6.62502C17.1873 6.73393 17.1199 6.82559 17.0467 6.90003ZM10.8831 9.82788C10.9003 9.83062 10.916 9.83454 10.9293 9.84002C10.9532 9.84981 10.9759 9.86627 10.9978 9.88899C11.0519 9.94266 11.0641 10.0218 11.0331 10.1268C11.0025 10.2282 10.9418 10.3226 10.8502 10.4092C11.055 10.5408 11.2638 10.6161 11.4769 10.6345C11.6846 10.6513 11.8467 10.6043 11.9627 10.4938C12.016 10.4433 12.0575 10.3822 12.0873 10.3105C12.1249 10.2353 12.1472 10.1542 12.155 10.0672L12.3991 10.3242L12.8057 10.2372L11.6912 9.0636C11.8577 8.91669 12.0269 8.77371 12.1993 8.63386L13.0553 9.72172L13.4803 9.68842L12.4763 8.41292C12.6627 8.26837 12.8519 8.12695 13.0451 7.99023L13.3103 8.39842L13.1618 8.49518C13.1375 8.51085 13.1246 8.53201 13.1226 8.55825C13.1136 8.58293 13.1172 8.60722 13.1328 8.63151C13.1771 8.69967 13.2872 8.7506 13.4623 8.7839C13.6374 8.81719 13.7604 8.81093 13.8305 8.76509C13.8571 8.74786 13.8756 8.72357 13.8861 8.69144C13.8897 8.65815 13.8826 8.62798 13.8654 8.60174L13.3381 7.79084C13.4689 7.7027 13.6002 7.61573 13.7334 7.53151L14.5196 8.74041L14.9238 8.71221L14.035 7.34504C14.4408 7.1006 14.8569 6.87221 15.2846 6.66381L15.506 7.10686L14.8008 7.45904C14.7609 7.47901 14.735 7.50957 14.7233 7.55031C14.7092 7.59262 14.7115 7.63258 14.7303 7.67018C14.775 7.7595 14.8569 7.83315 14.9767 7.89073C15.1013 7.95184 15.1953 7.96673 15.2588 7.935C15.2799 7.92442 15.2917 7.90953 15.294 7.89073C15.3046 7.87075 15.3046 7.85038 15.294 7.82923L15.2325 7.70583C15.2208 7.68233 15.2188 7.65843 15.2271 7.63375C15.2294 7.60907 15.24 7.59184 15.2588 7.58243L15.6466 7.38891L15.9283 7.95302L16.3333 7.97065L15.6066 6.51495C16.0548 6.3085 16.5135 6.12164 16.9832 5.95672L17.1756 6.48361C17.0514 6.41153 16.9354 6.36178 16.8273 6.33435C16.7192 6.30654 16.6346 6.3038 16.5727 6.32652C16.4411 6.37157 16.3427 6.45384 16.2769 6.57292C16.2131 6.68849 16.2029 6.80679 16.2471 6.92784C16.2941 7.05594 16.4058 7.16327 16.5829 7.24985C16.7576 7.33681 16.9088 7.35718 17.0369 7.31018C17.0937 7.28941 17.1477 7.25024 17.1995 7.19226C17.2578 7.13742 17.3107 7.06769 17.3581 6.98347L17.4729 7.29803L17.8803 7.3799L17.6233 6.67673C17.6566 6.5835 17.7021 6.50554 17.76 6.44208C17.8196 6.37588 17.8826 6.33044 17.9496 6.30576C17.9865 6.29244 18.0213 6.29636 18.0546 6.3179C18.0914 6.33514 18.1177 6.36491 18.133 6.40683C18.16 6.48087 18.171 6.56783 18.1655 6.66733C18.1545 6.77506 18.1302 6.88161 18.0934 6.98738L18.464 7.08258C18.5204 6.85498 18.5145 6.64775 18.446 6.4601C18.3986 6.32926 18.3002 6.21723 18.151 6.12321C17.999 6.02802 17.8709 5.99903 17.7675 6.03703C17.7177 6.05505 17.6703 6.08208 17.6249 6.11812C17.5732 6.15964 17.523 6.21017 17.4748 6.26972L17.3193 5.8439C17.668 5.7299 18.0209 5.62492 18.3794 5.53482L18.2995 5.46509L18.3006 5.4647L18.2854 5.45255L18.0632 5.25903C14.6018 6.18236 11.5886 8.2147 9.42737 10.9502L9.79168 11.0466C10.1341 10.6211 10.4999 10.2161 10.8831 9.82788Z" fill="#A4123F"/>
<path fill-rule="evenodd" clip-rule="evenodd" d="M16.1788 5.17906C16.234 5.16261 16.2904 5.15791 16.3476 5.16535C16.404 5.17045 16.4526 5.18729 16.4941 5.21589L16.9944 5.5802C17.095 5.55004 17.0331 5.44505 16.8095 5.26564C16.6966 5.17319 16.6199 5.11403 16.5791 5.08779C16.4718 5.00474 16.357 4.94598 16.2344 4.91151C16.1122 4.87978 16.0048 4.87742 15.9116 4.90563C15.8579 4.92718 15.8156 4.95068 15.7847 4.97653L16.0319 5.25193C16.0769 5.21902 16.1259 5.19473 16.1788 5.17906Z" fill="#A4123F"/>
<path fill-rule="evenodd" clip-rule="evenodd" d="M23.0734 6.94748C23.1407 6.90988 23.2164 6.89577 23.2998 6.90478L23.4957 6.92633L23.3648 6.67405L23.1885 6.65486C23.0761 6.64271 22.9762 6.6623 22.8889 6.71322C22.8039 6.76728 22.7553 6.83741 22.7431 6.9232C22.7259 7.07989 22.7721 7.22366 22.8822 7.3545C22.9966 7.49122 23.131 7.568 23.2849 7.58484C23.3895 7.59659 23.4808 7.59189 23.5599 7.57152C23.641 7.5539 23.7186 7.52138 23.7926 7.47398L23.6657 7.18292C23.5858 7.23737 23.4953 7.28164 23.3938 7.31533C23.301 7.34236 23.214 7.35137 23.1333 7.34236C23.0781 7.33648 23.035 7.31063 23.0029 7.26479C22.9688 7.21622 22.9547 7.16294 22.9609 7.10575C22.9652 7.03993 23.0029 6.98744 23.0734 6.94748Z" fill="#A4123F"/>
<path fill-rule="evenodd" clip-rule="evenodd" d="M26.2249 6.24866C26.2969 6.20243 26.3722 6.1899 26.4509 6.21066L26.8129 6.30624L26.8936 6.00147L26.3373 5.85457C26.2229 5.8244 26.1167 5.83576 26.0184 5.88865C25.9146 5.94271 25.8488 6.02145 25.8214 6.12565C25.7838 6.25688 25.7877 6.41828 25.8319 6.60945C25.8774 6.79787 25.9612 6.99962 26.0838 7.2139L26.2182 7.16768C26.154 7.03135 26.1077 6.89698 26.0803 6.76458C26.0599 6.63687 26.0611 6.52875 26.0846 6.43983C26.1062 6.35834 26.1528 6.29488 26.2249 6.24866Z" fill="#A4123F"/>
<path fill-rule="evenodd" clip-rule="evenodd" d="M33.4022 9.71472C33.3901 9.79229 33.3548 9.8628 33.2961 9.92587C33.2443 9.9815 33.1958 10.0226 33.1507 10.0497C33.1057 10.0802 33.0665 10.0971 33.0332 10.1006C33.0038 9.98071 32.9936 9.87298 33.0023 9.7774C33.0077 9.68495 33.0316 9.6164 33.0736 9.57135C33.117 9.52473 33.1664 9.49535 33.2212 9.48281C33.2745 9.47224 33.3168 9.48438 33.3486 9.51885C33.3948 9.56978 33.4128 9.6352 33.4022 9.71472ZM33.0818 9.20938C32.9552 9.23719 32.8851 9.32768 32.8546 9.51689C32.8217 9.70062 32.8444 9.90902 32.9231 10.1413C32.7688 10.1832 32.6246 10.1778 32.4914 10.1249C32.5177 10.0692 32.531 10.023 32.531 9.9858C32.5353 9.94154 32.5271 9.90863 32.5067 9.88826C32.4734 9.85457 32.428 9.84047 32.3704 9.84556C32.3128 9.85457 32.2607 9.88199 32.2141 9.92822C32.1655 9.9764 32.151 10.0403 32.171 10.1202C32.191 10.2001 32.2368 10.271 32.3089 10.3329L32.1945 10.8892L32.3888 10.9463L32.406 10.403C32.6434 10.4637 32.8577 10.481 33.0493 10.4543C33.2428 10.4332 33.3952 10.3674 33.5072 10.2565C33.7129 10.0414 33.8065 9.64303 33.5303 9.3316C33.4406 9.23876 33.3008 9.17373 33.0818 9.20938Z" fill="#A4123F"/>
<path fill-rule="evenodd" clip-rule="evenodd" d="M32.604 11.8065C32.4951 11.7924 32.4015 11.7395 32.3232 11.6479C32.1825 11.4876 32.0783 11.3333 32.0098 11.1844C31.9408 11.0395 31.9095 10.904 31.9158 10.7778L31.7767 10.7668C31.7642 10.9541 31.7908 11.1406 31.8562 11.3262C31.9283 11.5237 32.036 11.7062 32.1798 11.8739C32.2856 11.9977 32.4062 12.0725 32.5421 12.098C32.682 12.1238 32.7995 12.0956 32.8955 12.0137C32.977 11.9436 33.024 11.8308 33.0361 11.6753C33.0483 11.5198 33.0193 11.4011 32.9496 11.3192C32.9116 11.2753 32.8622 11.2416 32.8007 11.2181C32.7376 11.1891 32.6655 11.1715 32.5841 11.1652L32.5731 11.4857C32.6389 11.4779 32.6973 11.4814 32.7482 11.4963C32.8085 11.5143 32.8504 11.537 32.8743 11.5648C32.8982 11.593 32.9116 11.6228 32.9147 11.6545C32.9217 11.687 32.9131 11.7133 32.8892 11.7337C32.8113 11.8003 32.7161 11.8245 32.604 11.8065Z" fill="#A4123F"/>
<path fill-rule="evenodd" clip-rule="evenodd" d="M22.7308 5.06052C22.9287 5.06601 23.1253 5.07541 23.3212 5.08794L23.2898 5.74606L22.6995 5.71825L22.7308 5.06052ZM29.4766 6.76458C29.6525 6.85351 29.8264 6.94596 29.9988 7.04115L29.6897 7.62758L29.1671 7.35219L29.4766 6.76458ZM27.5386 6.95693C27.4109 6.96829 27.2981 6.95536 27.1998 6.91893C27.1293 6.88955 27.0756 6.84567 27.0388 6.78691C27.0051 6.72698 26.998 6.67096 27.0172 6.61925C27.045 6.53698 27.1254 6.48018 27.2578 6.44845C27.389 6.41907 27.5163 6.4273 27.6393 6.47313C27.6985 6.49546 27.7564 6.53933 27.8132 6.60554C27.8673 6.67057 27.9108 6.74852 27.9441 6.83941C27.8089 6.9013 27.6738 6.94047 27.5386 6.95693ZM20.0079 6.51936C20.183 6.64236 20.3573 6.69525 20.5297 6.67879C20.6527 6.66665 20.7526 6.60945 20.8297 6.50721C20.9096 6.40458 20.9429 6.28784 20.9304 6.157C20.9253 6.10215 20.9124 6.05201 20.892 6.00618C20.872 5.96348 20.8442 5.92117 20.8086 5.87965C20.8877 5.93292 20.9598 5.96935 21.0252 5.98933C21.091 6.0148 21.1553 6.02459 21.2179 6.01832C21.2904 6.00618 21.3417 5.98777 21.3707 5.96387L21.424 6.51309L21.7958 6.67488L21.6402 5.06718C21.8522 5.05856 22.0649 5.05347 22.2784 5.05347C22.3113 5.05347 22.3434 5.05465 22.3759 5.05465L22.3454 5.70141L22.2274 5.69553C22.1985 5.69435 22.1757 5.70376 22.1589 5.72413C22.137 5.73862 22.1256 5.76056 22.1244 5.78955C22.1213 5.84987 22.1836 5.95016 22.3113 6.0904C22.4386 6.23025 22.5322 6.30194 22.5929 6.30468C22.6137 6.30586 22.6313 6.29606 22.6454 6.27569C22.665 6.25023 22.6756 6.22203 22.6772 6.19029L22.6846 6.03282L23.275 6.06102L23.2546 6.49389L23.5974 6.74695L23.6749 5.11497C24.1724 5.15806 24.6637 5.22427 25.1471 5.31202L25.1028 5.57605L24.5979 5.49143C24.4733 5.47028 24.3609 5.49026 24.2602 5.55059C24.1619 5.61405 24.1035 5.69866 24.0859 5.80482C24.06 5.9576 24.0765 6.12292 24.1344 6.30037C24.1869 6.47979 24.2782 6.66547 24.4086 6.85782L24.5383 6.79945C24.4537 6.68428 24.3934 6.56636 24.3577 6.44571C24.3256 6.32035 24.3189 6.20087 24.3381 6.08688C24.3526 5.99873 24.3961 5.93136 24.4678 5.88513C24.5352 5.83225 24.6131 5.81344 24.7009 5.82833L25.0507 5.8867L24.914 6.70269L25.2242 6.99453L25.4953 5.3794C26.4183 5.56821 27.3126 5.83656 28.1705 6.17698L27.988 6.66665C27.9429 6.53189 27.8783 6.41515 27.7944 6.31683C27.7059 6.21654 27.615 6.14877 27.5214 6.11391C27.3772 6.0571 27.2401 6.05201 27.1105 6.09902C26.9792 6.1425 26.8911 6.22477 26.8464 6.34503C26.7928 6.48802 26.8147 6.65842 26.9115 6.85743C27.007 7.05839 27.1265 7.1857 27.2691 7.23898C27.3479 7.26875 27.4317 7.2805 27.521 7.27423C27.6091 7.27071 27.6981 7.24681 27.7878 7.20176L27.6777 7.49674L27.9272 7.84226L28.4988 6.31173C28.7213 6.40575 28.9411 6.50447 29.1581 6.60828L28.8533 7.18688L28.7487 7.13164C28.7233 7.11832 28.6986 7.11715 28.6747 7.12851C28.6488 7.13243 28.6292 7.14731 28.6155 7.17277C28.5873 7.22644 28.6014 7.34357 28.6574 7.52456C28.7135 7.70554 28.7683 7.81013 28.8216 7.83795C28.8404 7.84813 28.8604 7.84656 28.8815 7.83403C28.9101 7.81953 28.9317 7.79838 28.9465 7.77018L29.0198 7.63111L29.5428 7.9065L29.3406 8.29001L29.5439 8.66412L30.3074 7.21626C30.4959 7.32594 30.6823 7.43955 30.8661 7.55668L30.0963 8.73581L30.264 9.12755L31.1626 7.75059C31.5496 8.00953 31.9245 8.28453 32.2869 8.5752L31.9786 8.96929L31.3581 8.48392C31.3228 8.45611 31.284 8.44592 31.2421 8.45298C31.1979 8.45846 31.1626 8.47766 31.1368 8.51095C31.0753 8.5893 31.0443 8.69507 31.0435 8.82826C31.042 8.96654 31.069 9.05782 31.125 9.10169C31.1434 9.11619 31.1618 9.1205 31.1798 9.11462C31.2022 9.11541 31.221 9.10679 31.2355 9.08798L31.3205 8.97947C31.3365 8.95871 31.3577 8.94696 31.3835 8.94382C31.4067 8.93521 31.4266 8.93756 31.4431 8.95048L31.7847 9.21765L31.3961 9.71398L31.554 10.0877L32.5611 8.80006C32.7084 8.92385 32.8541 9.0492 32.9971 9.17808L33.2345 8.92894C30.3309 6.30782 26.4888 4.70874 22.2784 4.70874C21.7926 4.70874 21.312 4.72989 20.8368 4.77142L21.0542 5.10165C21.1314 5.09578 21.2089 5.09264 21.2861 5.08794L21.3312 5.55215C21.2986 5.60034 21.2602 5.63834 21.2156 5.66615C21.1705 5.69435 21.122 5.71081 21.0699 5.7159C20.968 5.72608 20.8889 5.72844 20.8329 5.72295C20.7694 5.72138 20.7224 5.71159 20.6914 5.69318C20.7428 5.64852 20.7811 5.59485 20.8066 5.53178C20.8321 5.46871 20.8419 5.40564 20.836 5.34296C20.8238 5.21722 20.7384 5.10165 20.5806 4.99549C20.4251 4.88933 20.2703 4.8435 20.116 4.85838C20.0404 4.86583 19.9636 4.89168 19.886 4.93595C19.8053 4.97551 19.7317 5.02997 19.6643 5.10009L19.8657 5.33787C19.9326 5.26814 20.011 5.20625 20.1011 5.15258C20.1837 5.10792 20.2617 5.08168 20.335 5.07462C20.4004 5.06836 20.4568 5.08128 20.505 5.1138C20.5559 5.14827 20.5837 5.19293 20.5892 5.24816C20.597 5.3316 20.5833 5.40682 20.5477 5.47381C20.5297 5.53335 20.4819 5.56978 20.4039 5.58271C20.3581 5.5737 20.3044 5.57644 20.2421 5.59015C20.1732 5.61013 20.1046 5.63912 20.0368 5.67751L20.2026 5.95839C20.3295 5.93292 20.456 5.87455 20.5814 5.78289C20.6104 5.80678 20.6327 5.83499 20.6491 5.8675C20.6648 5.89257 20.6746 5.92705 20.6789 5.9717C20.691 6.06807 20.6664 6.15621 20.6057 6.23574C20.5367 6.31369 20.4552 6.35718 20.3608 6.36658C20.2406 6.37794 20.1172 6.34386 19.991 6.26394C19.8637 6.17854 19.7548 6.06102 19.6639 5.91138L19.5538 6.00109C19.6753 6.22163 19.8265 6.39439 20.0079 6.51936Z" fill="#A4123F"/>
<path fill-rule="evenodd" clip-rule="evenodd" d="M32.9891 11.1896L33.0984 11.5801L34.2497 10.4425C34.3355 10.5385 34.4217 10.6341 34.5051 10.7324L34.6038 10.318C34.3997 10.0849 34.189 9.85805 33.9723 9.63672L33.7291 9.88195C33.8247 9.97988 33.9175 10.0802 34.0107 10.1801L32.9891 11.1896Z" fill="#A4123F"/>
<path fill-rule="evenodd" clip-rule="evenodd" d="M33.6973 11.9722H34.1973V11.4722H33.6973V11.9722Z" fill="#A4123F"/>
<path fill-rule="evenodd" clip-rule="evenodd" d="M34.1945 11.4807H34.6945V10.9807H34.1945V11.4807Z" fill="#A4123F"/>
<path fill-rule="evenodd" clip-rule="evenodd" d="M11.4553 51.1133C11.2555 51.2085 11.0648 51.2563 10.8834 51.2563C10.7518 51.252 10.6386 51.2132 10.543 51.1407C10.4521 51.0635 10.4066 50.977 10.4066 50.8818C10.4023 50.7321 10.4975 50.5915 10.693 50.4599C10.8877 50.3326 11.0988 50.2691 11.3261 50.2691C11.435 50.2691 11.5552 50.3055 11.6868 50.378C11.8138 50.4509 11.9317 50.5504 12.041 50.6777C11.8592 50.8594 11.6641 51.0044 11.4553 51.1133ZM4.51098 51.9508C4.45222 51.8917 4.42284 51.8192 4.42284 51.7326C4.42284 51.6468 4.45222 51.574 4.51098 51.5152C4.57014 51.4561 4.64261 51.4263 4.72918 51.4263C4.81536 51.4263 4.88784 51.4561 4.94699 51.5152C5.00575 51.574 5.03552 51.6468 5.03552 51.7326C5.03552 51.8192 5.00575 51.8917 4.94699 51.9508C4.88784 52.0096 4.81536 52.0394 4.72918 52.0394C4.64261 52.0394 4.57014 52.0096 4.51098 51.9508ZM1.70614 49.9694C1.65169 50.083 1.57921 50.1602 1.48833 50.2009C1.36572 50.1602 1.26817 50.0877 1.1957 49.9831C1.11853 49.8832 1.07975 49.7743 1.07975 49.6564C1.07975 49.5608 1.11853 49.475 1.1957 49.3975C1.28188 49.3203 1.37943 49.2819 1.48833 49.2819C1.57451 49.2819 1.64738 49.3117 1.70614 49.3705C1.76529 49.4292 1.79467 49.5021 1.79467 49.5883C1.79467 49.734 1.76529 49.8605 1.70614 49.9694ZM16.6157 51.9712L17.2284 52.312V49.4523H17.8414L17.5347 48.9074H14.5869H14.4506H12.9259H12.7896H9.51505H9.37873H7.85408H7.71775H3.66679H3.53085H2.27142L2.61184 49.4523H2.74777V50.7118L2.06693 50.405C2.13039 50.3416 2.18053 50.2601 2.21696 50.1602C2.253 50.0603 2.27142 49.9604 2.27142 49.8605C2.27142 49.62 2.15781 49.3795 1.93099 49.1389C1.69948 48.8937 1.47227 48.7715 1.25015 48.7715C1.03235 48.7715 0.84588 48.8373 0.691926 48.9689C0.541891 49.1049 0.467069 49.2659 0.467069 49.4523C0.471769 49.6063 0.541891 49.7657 0.678216 49.9291C0.814541 50.083 1.00493 50.2193 1.25015 50.3377C1.02765 50.4869 0.653144 50.6804 0.126648 50.9159L0.603394 51.3244C1.18865 51.0389 1.60859 50.7889 1.86283 50.5754L2.40735 50.8477L0.807489 51.8349L1.25015 52.2094L2.74777 51.1881V51.9712L3.36045 52.312V49.4523H7.00988V49.9291H6.29496C6.04072 49.9291 5.83193 50.0149 5.66857 50.1872C5.49581 50.369 5.41002 50.5778 5.41002 50.8136C5.40532 51.1047 5.56202 51.4173 5.87972 51.7534C6.19742 52.0801 6.49436 52.2435 6.77131 52.2435C6.78503 52.2482 6.82381 52.2364 6.88727 52.2094L6.9758 52.1753C6.89863 52.4436 6.78738 52.6564 6.64204 52.8154C6.50141 52.9788 6.35176 53.0606 6.19272 53.0606C6.11124 53.0606 6.04738 53.0332 6.00194 52.9788C5.95219 52.9333 5.92477 52.8699 5.92046 52.788C5.92046 52.7065 5.95689 52.634 6.02936 52.5702C6.11554 52.4977 6.21544 52.4452 6.32904 52.4135L5.78413 52.0731C5.70265 52.0915 5.62783 52.1279 5.55967 52.1824C5.49581 52.2321 5.45742 52.2866 5.44371 52.3457C5.2169 52.3457 5.04649 52.312 4.93328 52.2435C5.05119 52.2027 5.14207 52.1326 5.20554 52.0323C5.2737 51.9281 5.30778 51.8169 5.30778 51.6989C5.30778 51.5356 5.25333 51.3993 5.14442 51.2904C5.04453 51.1771 4.91722 51.1203 4.76326 51.1203C4.57249 51.1156 4.41109 51.1724 4.27986 51.2904C4.14784 51.413 4.08242 51.5603 4.08242 51.7326C4.08673 51.9692 4.216 52.171 4.47024 52.3387C4.72918 52.502 5.04218 52.5839 5.41002 52.5839C5.35988 52.7562 5.44841 52.9243 5.67523 53.0877C5.90675 53.251 6.17 53.3329 6.46497 53.3329C6.63773 53.3329 6.8054 53.269 6.96875 53.1421C7.1278 53.0148 7.25472 52.8405 7.3503 52.618L7.62256 53.1966L7.99706 53.0265L7.48624 52.1753C7.58182 52.1487 7.65429 52.0981 7.70404 52.0257C7.7632 51.9438 7.79258 51.8576 7.79258 51.7667C7.79258 51.6398 7.73577 51.5039 7.62256 51.3585C7.50896 51.2222 7.39535 51.154 7.28214 51.154C7.15953 51.154 7.05493 51.1862 6.96875 51.2496C6.88257 51.3131 6.83948 51.3946 6.83948 51.4945C6.83948 51.581 6.87356 51.6829 6.94172 51.8008C6.81911 51.869 6.71686 51.903 6.63538 51.903C6.43559 51.903 6.26754 51.8282 6.13161 51.6786C5.99058 51.5242 5.92046 51.3382 5.92046 51.1203C5.92046 50.9476 5.97491 50.7956 6.08381 50.6644C6.18841 50.537 6.31533 50.4732 6.46497 50.4732H7.62256V49.4523H8.59603V51.903L9.20871 52.312V49.4523H12.0069V50.371C11.8526 50.1806 11.6778 50.0309 11.4828 49.922C11.2783 49.8131 11.0898 49.7587 10.9175 49.7587C10.6495 49.754 10.4251 49.8288 10.2433 49.9831C10.0572 50.1328 9.96437 50.3192 9.96437 50.5414C9.96437 50.8046 10.1027 51.0679 10.3796 51.3311C10.6566 51.5991 10.9265 51.7326 11.1897 51.7326C11.3351 51.7326 11.4781 51.7013 11.6187 51.6374C11.7593 51.5787 11.8886 51.4854 12.0069 51.3585V51.903L12.6196 52.312V49.4523H13.6679V51.903L14.2805 52.312V49.4523H16.6157V50.3377H15.254C15.1768 50.3377 15.1134 50.3643 15.0636 50.4191C15.0092 50.4732 14.9818 50.537 14.9818 50.6095C14.9818 50.7819 15.0519 50.959 15.1929 51.1407C15.3378 51.3311 15.4718 51.4263 15.5944 51.4263C15.6352 51.4263 15.665 51.413 15.683 51.3856C15.7147 51.3628 15.7308 51.3311 15.7308 51.2904V51.0518C15.7308 51.0071 15.7464 50.968 15.7782 50.9362C15.8009 50.9002 15.8307 50.8818 15.8667 50.8818H16.6157V51.9712Z" fill="#A4123F"/>
<path fill-rule="evenodd" clip-rule="evenodd" d="M17.249 52.686C17.0539 52.5274 16.8995 52.4482 16.7859 52.4482C16.6907 52.4482 16.6022 52.4616 16.5203 52.4886C16.4526 52.5117 16.382 52.5544 16.3096 52.6179L16.5477 52.9924C16.6069 52.9469 16.6614 52.9152 16.7111 52.8972C16.7746 52.8701 16.8337 52.8564 16.8882 52.8564C17.0425 52.8607 17.3512 53.1079 17.8142 53.5984L18.1817 53.9795L18.3858 53.8091C18.1135 53.5142 17.7347 53.1397 17.249 52.686Z" fill="#A4123F"/>
<path fill-rule="evenodd" clip-rule="evenodd" d="M24.8399 49.9971C24.731 49.9697 24.6401 49.9015 24.5676 49.793C24.4994 49.6931 24.4654 49.5678 24.4654 49.4181C24.4701 49.3139 24.4947 49.225 24.5402 49.1529C24.5856 49.0801 24.6401 49.0436 24.7035 49.0436C24.749 49.0436 24.7807 49.0711 24.7991 49.1251C24.8261 49.171 24.8399 49.2344 24.8399 49.3163V49.9971ZM29.7009 48.9077H27.325H27.1887H25.3844L25.7248 49.4522H26.4056V50.6094H25.4525V49.6226C25.4525 49.4095 25.3483 49.1984 25.1395 48.9896C24.926 48.7761 24.7125 48.6691 24.4994 48.6691C24.3224 48.6652 24.1704 48.7212 24.0435 48.8395C23.9161 48.9665 23.8527 49.1145 23.8527 49.2822C23.8527 49.3382 23.8586 49.3935 23.8699 49.4467L23.5667 48.9077H19.6113L19.9177 49.4522H22.4029V49.8945C22.3253 49.8945 22.2344 49.9337 22.1302 50.0104C22.026 50.0919 21.9238 50.2012 21.8239 50.3372C21.6969 50.1832 21.5653 50.0653 21.429 49.9834C21.2931 49.9015 21.1634 49.8604 21.0412 49.8604C20.8187 49.8604 20.6255 49.9423 20.4622 50.1056C20.3035 50.2651 20.224 50.4555 20.224 50.6776C20.224 50.9138 20.3263 51.1637 20.5303 51.4262C20.7254 51.6992 21.0091 51.9715 21.3816 52.2434L21.5516 52.0397C21.3154 51.8395 21.134 51.6448 21.0071 51.454C20.8798 51.2495 20.8163 51.0701 20.8163 50.9161C20.8163 50.7481 20.8618 50.6118 20.9526 50.5076C21.0431 50.3944 21.152 50.3372 21.2794 50.3372C21.3565 50.3372 21.429 50.3579 21.4972 50.3983C21.5653 50.4347 21.6288 50.4942 21.6879 50.5757C21.5516 50.8664 21.4721 51.0478 21.4494 51.1199L21.9943 51.3588C22.0667 51.054 22.1803 50.8006 22.3343 50.5957C22.4843 50.4006 22.643 50.3031 22.811 50.3031C22.9066 50.3031 22.9881 50.3309 23.0563 50.3846C23.1197 50.4347 23.1515 50.4982 23.1515 50.5757C23.1605 50.7211 23.0904 50.8883 22.9403 51.0795C22.795 51.275 22.5932 51.4583 22.3343 51.6311L22.8451 52.1074C23.0629 51.8763 23.231 51.6491 23.3489 51.4262C23.4668 51.2045 23.526 51.0004 23.526 50.8139C23.526 50.6051 23.4782 50.4186 23.383 50.2553C23.2968 50.0919 23.1742 49.9834 23.0151 49.9286V49.4522H23.8715C23.9071 49.6113 23.9937 49.7566 24.132 49.8882C24.3314 50.0739 24.5676 50.1899 24.8399 50.2349V50.6094H24.6358C24.5719 50.6094 24.5175 50.6274 24.472 50.6639C24.427 50.705 24.4019 50.7551 24.3972 50.8139C24.4019 50.9502 24.5108 51.1199 24.7243 51.3247C24.9374 51.5284 25.1121 51.6311 25.2484 51.6311C25.3072 51.6311 25.3573 51.6036 25.3981 51.5492C25.4345 51.4994 25.4525 51.436 25.4525 51.3588V51.1539H26.4056V51.9715L27.0183 52.3115V49.4522H29.4965V49.9286H28.6115C28.3937 49.9286 28.2076 49.9944 28.0533 50.1264C27.9036 50.2627 27.8284 50.4237 27.8284 50.6094C27.8284 50.8778 27.9036 51.1539 28.0533 51.4403C28.1939 51.731 28.4027 52.0216 28.6797 52.3115L28.8838 52.1756C28.7067 52.0032 28.5708 51.8191 28.4752 51.624C28.3847 51.4199 28.3393 51.2178 28.3393 51.018C28.3393 50.864 28.3937 50.7371 28.5026 50.6372C28.6025 50.5275 28.7294 50.4735 28.8838 50.4735H29.4965V51.9029L30.1091 52.3115V49.4522H30.7222L30.4155 48.9077H29.7009Z" fill="#A4123F"/>
<path fill-rule="evenodd" clip-rule="evenodd" d="M29.5511 48.2951C29.4104 48.0863 29.3129 47.9499 29.2584 47.8861C29.1221 47.6957 28.9611 47.5413 28.775 47.423C28.5889 47.3098 28.4119 47.2534 28.2438 47.2534C28.1443 47.262 28.0624 47.2801 27.9986 47.3075L28.2712 47.8861C28.3621 47.8547 28.455 47.8387 28.5502 47.8387C28.6501 47.8387 28.7456 47.859 28.8361 47.8998C28.927 47.9366 28.9995 47.9887 29.0539 48.0569L29.7007 48.9073C29.8825 48.9073 29.8327 48.7032 29.5511 48.2951Z" fill="#A4123F"/>
<path fill-rule="evenodd" clip-rule="evenodd" d="M42.0711 49.4524H43.0924V50.6096H42.0711V49.4524ZM43.0924 51.9031L43.7051 52.3117V49.4524H44.3177L44.0114 48.9075H40.6687H40.5324H37.7209H37.5845H36.0595H35.9232H32.4919L32.7983 49.4524H35.1405V49.9287H33.2684L33.1661 50.1332C33.4474 50.2147 33.6789 50.342 33.8607 50.5144C34.033 50.6958 34.1192 50.8865 34.1192 51.0863C34.1192 51.1725 34.0785 51.2497 33.9966 51.3178C33.8967 51.395 33.7902 51.4424 33.6766 51.4608C33.6448 51.3927 33.5951 51.3359 33.5269 51.2904C33.4588 51.245 33.3953 51.2223 33.3361 51.2223C33.2453 51.2223 33.1728 51.2544 33.1183 51.3178C33.0596 51.3856 33.0298 51.4675 33.0298 51.5627C33.0298 51.7033 33.1003 51.8216 33.2409 51.9168C33.3816 52.0214 33.5496 52.0735 33.7447 52.0735L34.1533 52.9925L34.4596 52.8221L33.9151 52.0394C34.1055 52.0077 34.2689 51.9305 34.4052 51.8079C34.5321 51.69 34.5956 51.5517 34.5956 51.3927C34.5956 51.2246 34.5458 51.0589 34.4459 50.8955C34.3551 50.7322 34.2234 50.5916 34.0511 50.4736H35.1405V51.9713L35.7532 52.3117V49.4524H36.8015V51.9031L37.4141 52.3117V49.4524H39.7493V50.3373H38.388C38.3108 50.3373 38.2474 50.3643 38.1972 50.4188C38.1428 50.4736 38.1157 50.5371 38.1157 50.6096C38.1157 50.7823 38.1859 50.959 38.3265 51.1408C38.4718 51.3312 38.6058 51.4267 38.728 51.4267C38.7692 51.4267 38.7985 51.413 38.817 51.3856C38.8487 51.3633 38.8644 51.3312 38.8644 51.2904V51.0522C38.8644 51.0068 38.8804 50.968 38.9121 50.9363C38.9349 50.9002 38.9642 50.8818 39.0007 50.8818H39.7493V51.9713L40.3624 52.3117V49.4524H41.4584V50.6096H41.2543C41.2042 50.6096 41.1654 50.6276 41.1384 50.664C41.102 50.6914 41.0839 50.7298 41.0839 50.78C41.0839 50.8842 41.1995 51.0522 41.431 51.2838C41.6629 51.5153 41.8306 51.6308 41.9352 51.6308C41.9712 51.6308 42.0006 51.6128 42.0233 51.5764C42.0551 51.5313 42.0711 51.4812 42.0711 51.4267V51.1545H43.0924V51.9031Z" fill="#A4123F"/>
<path fill-rule="evenodd" clip-rule="evenodd" d="M43.7255 52.686C43.5304 52.5274 43.376 52.4482 43.2624 52.4482C43.1672 52.4482 43.0787 52.4616 42.9968 52.4886C42.9291 52.5117 42.8585 52.5544 42.7861 52.6179L43.0242 52.9924C43.083 52.9469 43.1379 52.9152 43.1876 52.8972C43.2511 52.8701 43.3102 52.8564 43.3647 52.8564C43.519 52.8607 43.8273 53.1079 44.2907 53.5984L44.6582 53.9795L44.8623 53.8091C44.59 53.5142 44.2112 53.1397 43.7255 52.686Z" fill="#A4123F"/>
</svg>
